<svg width="90" height="90" viewBox="0 0 90 90" fill="none" xmlns="http://www.w3.org/2000/svg">
<circle cx="45" cy="45" r="45" fill="black"/>
<path d="M34.3473 31.4517C32.4747 30.1398 30.6993 28.6943 29.0348 27.1267C28.1973 26.0267 25.7973 23.2142 25.5348 23.5892C25.2723 23.9642 23.2973 27.3392 22.8348 27.3392C20.9641 26.1212 19.173 24.7852 17.4723 23.3392C16.5571 23.6238 15.572 23.5869 14.6807 23.2344C13.7894 22.882 13.0454 22.2353 12.5723 21.4017C10.5348 18.3892 14.3473 15.2642 17.5723 15.6767C20.7973 16.0892 19.6598 20.0517 19.6598 20.0517C19.6598 20.0517 21.0098 21.0392 21.1098 20.8892C21.2098 20.7392 23.2973 17.4017 24.6598 17.5017C26.0223 17.6017 28.8223 20.7767 28.8223 20.7767C28.8223 20.7767 31.4848 20.4642 32.7348 21.7142C33.9848 22.9642 33.7723 24.8392 34.2973 24.9017C34.8223 24.9642 37.0473 25.5767 37.0473 25.5767C37.0473 25.5767 39.2348 18.3892 44.5473 17.6017C49.8598 16.8142 58.5598 26.7142 58.5598 26.7142C58.5598 26.7142 61.4848 20.6767 62.3098 20.4642C63.1348 20.2517 67.1598 22.9642 67.3098 22.8142C67.4598 22.6642 71.2223 18.3267 71.2223 18.3267C70.9148 17.9958 70.6769 17.6065 70.5226 17.182C70.3683 16.7574 70.3008 16.3062 70.3242 15.8551C70.3475 15.4039 70.4611 14.9621 70.6583 14.5557C70.8556 14.1493 71.1324 13.7866 71.4723 13.4892C71.9859 12.8831 72.6603 12.4347 73.4178 12.1955C74.1753 11.9563 74.985 11.9362 75.7534 12.1374C76.5219 12.3387 77.2178 12.7531 77.7608 13.3329C78.3038 13.9127 78.6718 14.6342 78.8223 15.4142C79.8098 19.0642 74.3973 20.0517 74.3973 20.0517C74.3973 20.0517 69.1348 27.6517 68.5098 27.8142C67.8848 27.9767 64.4473 26.3517 64.3473 26.5642C64.2473 26.7767 62.5223 31.4017 62.5223 31.4017C65.783 35.4465 67.7903 40.3561 68.2973 45.5267C68.9223 53.7517 68.2973 58.7517 63.0973 61.2517C60.0611 62.827 56.7895 63.8992 53.4098 64.4267C52.1598 64.5892 50.2223 64.7392 50.2223 64.7392L50.6973 66.9767L54.6598 67.5517C54.8052 67.0419 55.1223 66.5979 55.5573 66.295C55.9924 65.992 56.5187 65.8487 57.0473 65.8892C58.9723 65.9892 58.7223 68.4892 57.9723 69.1517C57.6686 69.383 57.3022 69.5175 56.9209 69.5376C56.5397 69.5576 56.1612 69.4624 55.8348 69.2642C55.4723 69.0017 55.0598 68.6392 55.0598 68.6392H51.5723C51.6517 69.767 51.6517 70.8989 51.5723 72.0267L51.4098 72.4892L51.5223 73.7392C51.5223 73.7392 54.7973 73.9517 54.7973 74.7892C54.7973 75.6267 53.7598 76.9142 53.1848 76.8642C52.3013 76.7354 51.4518 76.4338 50.6848 75.9767C50.5848 75.7267 50.3223 72.7517 50.3223 72.7517H49.4848C49.644 73.8734 49.6984 75.0074 49.6473 76.1392C49.4348 76.3517 46.4598 77.8642 45.8973 77.3892C45.3348 76.9142 44.7473 74.8892 45.2223 74.7267C45.6973 74.5642 48.5973 74.3142 48.5973 74.1642C48.5973 74.0142 48.6598 72.9142 48.6598 72.9142C48.6598 72.9142 47.5098 72.2392 47.5098 71.4142C47.5098 70.5892 47.4098 69.3767 47.4098 69.3767C47.1189 69.394 46.8382 69.4905 46.5981 69.6557C46.3579 69.821 46.1675 70.0486 46.0473 70.3142C45.7972 70.7168 45.5718 71.1342 45.3723 71.5642C45.3723 71.5642 45.9973 73.6517 44.5348 74.0642C43.0723 74.4767 41.4098 72.6017 42.1473 71.2017C42.8848 69.8017 44.4848 70.7267 44.4848 70.7267C45.1188 69.7509 45.8702 68.8567 46.7223 68.0642C47.057 67.8531 47.4034 67.6611 47.7598 67.4892L48.0223 64.9892C48.0223 64.9892 41.3098 65.8767 36.6723 64.0517C32.0348 62.2267 28.2848 59.3142 28.5473 52.2767C28.8098 45.2392 34.3473 31.4517 34.3473 31.4517Z" fill="#1D1D1B"/>
<path d="M43.56 71.3392C43.935 71.0642 44.5975 72.4892 44.185 72.8017C43.7725 73.1142 42.5725 72.0767 43.56 71.3392Z" fill="#A42116"/>
<path d="M56.4724 66.7144C57.2474 66.7144 57.7224 66.9144 57.7224 67.5894C57.7224 68.2644 56.7849 68.5269 56.4724 68.2769C56.1599 68.0269 56.0599 66.7144 56.4724 66.7144Z" fill="#A42116"/>
<path d="M49.1354 66.1393C49.3979 65.7393 50.9604 70.6643 50.5979 71.1393C50.3318 71.3355 50.0211 71.4623 49.6937 71.5082C49.3663 71.554 49.0326 71.5174 48.7229 71.4018C48.6525 69.6375 48.791 67.8711 49.1354 66.1393Z" fill="#E7413E"/>
<path d="M15.6983 17.489C17.0358 17.489 18.3483 17.389 18.5608 19.0015C18.7733 20.614 17.7233 21.5015 15.9108 21.764C15.6084 21.7845 15.3053 21.7381 15.0229 21.6281C14.7405 21.5181 14.4858 21.3472 14.277 21.1276C14.0681 20.908 13.9102 20.6451 13.8145 20.3576C13.7188 20.07 13.6877 19.765 13.7233 19.464C13.8233 18.9015 14.3983 17.539 15.6983 17.489Z" fill="#F2910D"/>
<path d="M19.7594 21.8144C19.9844 21.8144 21.2719 23.0644 21.6844 22.7019C22.0969 22.3394 25.0219 18.8394 25.2219 18.9519C25.4219 19.0644 28.4594 22.7019 28.9719 22.5394C29.4844 22.3769 30.4844 21.7644 31.1094 22.0769C31.7344 22.3894 32.5719 22.8519 32.6719 23.4269C32.7719 24.0019 32.8344 26.3394 33.6094 26.5019C34.3844 26.6644 36.3719 26.7644 36.3219 27.0269C36.2719 27.2894 34.9094 30.0394 34.9094 30.0394C32.9677 29.3556 31.3152 28.0336 30.2219 26.2894C28.2469 23.3269 27.0969 22.1769 26.2719 21.8144C25.4469 21.4519 25.1219 21.2894 24.8094 21.6019C24.4969 21.9144 23.2469 24.8394 22.5219 24.9394C21.7969 25.0394 18.9219 22.7519 18.9219 22.4394C18.9219 22.1269 19.4469 21.8644 19.7594 21.8144Z" fill="#FAB900"/>
<path d="M59.5977 27.3893C59.5977 27.3893 62.2102 21.4518 62.8852 21.8143C63.5602 22.1768 66.6352 24.5268 67.1602 24.3143C67.6852 24.1018 72.0477 18.9518 72.3102 19.1018C72.5727 19.2518 72.9352 19.3143 72.7852 19.5268C72.6352 19.7393 68.1977 26.2893 67.9727 26.2393C67.7477 26.1893 64.2227 24.3643 63.9227 24.7393C63.6227 25.1143 61.6352 30.2643 61.4227 29.9518C61.2102 29.6393 59.5977 27.3893 59.5977 27.3893Z" fill="#FAB900"/>
<path d="M73.8715 13.5893C76.8465 12.8018 77.884 15.3018 77.259 16.8143C77.0478 17.246 76.7308 17.6172 76.3375 17.8935C75.9443 18.1698 75.4875 18.3422 75.0098 18.3946C74.5321 18.447 74.0488 18.3777 73.605 18.1932C73.1612 18.0087 72.7713 17.715 72.4715 17.3393C70.909 15.4018 73.2215 13.7518 73.8715 13.5893Z" fill="#F2910D"/>
<path d="M44.6597 19.6267C47.0222 18.8392 53.1472 22.9017 59.2847 30.8767C65.4222 38.8517 66.1097 49.1517 65.9097 49.1017C65.7097 49.0517 63.6097 47.5892 63.4097 47.6392C63.2097 47.6892 62.9347 48.3267 63.0972 48.4767C63.2597 48.6267 65.7472 49.9892 65.7972 50.3517C65.8472 50.7142 65.6972 51.7642 65.6972 52.1267C65.6949 52.3552 65.6612 52.5823 65.5972 52.8017C64.5543 52.1061 63.4546 51.4998 62.3097 50.9892C62.1597 51.1517 61.6347 51.9267 61.8972 52.0392C63.1321 52.6212 64.3012 53.3336 65.3847 54.1642C65.2462 54.6787 65.0358 55.171 64.7597 55.6267L64.5472 55.8892L61.0097 53.3892C61.0097 53.3892 59.9097 53.9142 60.3847 54.3267C60.8597 54.7392 64.1347 56.8267 63.9222 57.1892C63.7097 57.5517 62.7847 58.4892 62.7847 58.4892C61.671 57.5553 60.4791 56.7188 59.2222 55.9892C58.8597 55.9892 58.3972 56.4642 58.5972 56.6642C58.7972 56.8642 61.9347 59.2767 61.7222 59.4267C61.5097 59.5767 60.3722 60.2142 60.3722 60.2142C60.3722 60.2142 57.7722 58.2767 57.5597 58.2267C57.3472 58.1767 56.8847 58.4892 56.8847 58.7017C56.8847 58.9142 59.5347 60.6767 59.3847 60.7767C58.5926 61.1556 57.7509 61.4207 56.8847 61.5642C56.7222 61.3392 55.2222 59.7392 54.6597 59.7392C54.0972 59.7392 53.8222 60.0517 54.0347 60.2642C54.2472 60.4767 55.9597 61.7267 55.7472 61.8767C55.5347 62.0267 46.5847 63.6517 41.5347 62.7642C36.4847 61.8767 33.2972 60.6142 31.7222 56.1892C30.1472 51.7642 32.6097 42.3392 35.3222 35.5142C38.0347 28.6892 40.7472 20.9892 44.6597 19.6267Z" fill="#E7413E"/>
<path d="M35.0229 54.5769C35.3229 54.3644 36.273 54.8394 35.9105 55.1519C35.548 55.4644 34.9729 55.8269 34.8104 56.4019C34.6479 56.9769 34.5479 57.2269 34.2854 57.1769C34.2105 57.1634 34.1391 57.1351 34.0752 57.0938C34.0112 57.0524 33.9562 56.9988 33.9132 56.936C33.8701 56.8732 33.84 56.8025 33.8245 56.728C33.809 56.6535 33.8085 56.5766 33.823 56.5019C34.0146 55.7517 34.4338 55.0793 35.0229 54.5769Z" fill="#1D1D1B"/>
<path d="M37.573 56.5518C37.998 56.5518 38.5605 58.2143 40.2855 58.5893C42.0105 58.9643 44.0355 59.1518 44.2855 59.7268C44.3234 59.8984 44.3247 60.0762 44.2892 60.2484C44.2538 60.4206 44.1824 60.5833 44.0798 60.7261C43.9772 60.8688 43.8456 60.9883 43.6936 61.0767C43.5417 61.1652 43.3728 61.2205 43.198 61.2393C41.3639 60.969 39.6179 60.2757 38.098 59.2143C36.848 58.1143 36.5355 56.5518 37.573 56.5518Z" fill="#1D1D1B"/>
<path d="M41.5352 28.5893C41.4602 28.4393 41.6352 27.7518 42.4727 25.7143C43.3102 23.6768 44.7602 23.2143 45.0727 23.5268C45.3852 23.8393 45.4852 24.1518 45.2852 24.3643C44.3004 24.8329 43.5219 25.647 43.0977 26.6518C42.5727 28.2143 42.6727 28.4268 42.4102 28.6393C42.1477 28.8518 41.7227 28.9018 41.5352 28.5893Z" fill="#1D1D1B"/>
<path d="M39.6603 35.2517C39.5853 34.9267 41.5353 33.2767 44.9728 32.1767C48.4103 31.0767 51.0103 31.2892 51.0603 31.8142C51.0687 32.2688 51.0183 32.7225 50.9103 33.1642C48.8958 32.7935 46.8177 32.9926 44.9103 33.7392C42.0478 34.9892 40.5978 36.1392 40.3353 36.1392C40.0728 36.1392 39.7103 35.5142 39.6603 35.2517Z" fill="#1D1D1B"/>
<path d="M46.8983 35.9891C52.2108 34.6141 58.4608 38.4891 59.3983 43.1266C60.3358 47.7641 58.3983 54.2141 50.7983 55.2141C43.1983 56.2141 39.1858 53.2266 38.2983 48.2766C37.4108 43.3266 39.2233 37.9016 46.8983 35.9891Z" fill="#1D1D1B"/>
<path d="M47.2355 37.6015C51.623 36.464 56.773 39.664 57.5105 43.489C58.248 47.314 56.723 52.6515 50.473 53.489C44.223 54.3265 40.8855 51.8515 40.198 47.764C39.5105 43.6765 40.9105 39.2265 47.2355 37.6015Z" fill="#E6E4DA"/>
<path d="M47.7593 40.2019C50.6968 39.4394 54.1593 41.5769 54.6468 44.1519C54.8358 44.908 54.859 45.696 54.7146 46.4618C54.5702 47.2277 54.2618 47.9532 53.8105 48.5886C53.3592 49.2239 52.7758 49.7541 52.1002 50.1426C51.4246 50.5312 50.673 50.7689 49.8968 50.8394C45.6843 51.3894 43.4593 49.7394 42.9968 47.0019C42.5343 44.2644 43.5218 41.2894 47.7593 40.2019Z" fill="#1D1D1B"/>
<path d="M49.0856 41.9641C49.6731 41.6766 52.0981 43.3766 51.7356 43.9516C51.3731 44.5266 48.9231 44.6766 48.6606 44.4141C48.3981 44.1516 48.3481 42.3391 49.0856 41.9641Z" fill="#E6E4DA"/>
</svg>
