<svg width="58" height="67" viewBox="0 0 58 67" fill="none" xmlns="http://www.w3.org/2000/svg">
<path d="M27.3222 37.2183C27.3222 37.2183 19.4097 37.6308 15.1847 33.4683C10.9597 29.3058 10.8722 26.2308 10.8722 26.2308C10.8722 26.2308 7.53472 26.3308 6.18472 25.1808C4.83472 24.0308 4.55972 21.1183 6.59722 19.1933C8.63472 17.2683 9.62222 17.4308 9.62222 17.4308C9.8284 15.8525 10.1927 14.2988 10.7097 12.7933C11.0435 11.8672 11.4974 10.9888 12.0597 10.1808L6.38472 7.05583C5.95493 7.51667 5.38509 7.82282 4.76357 7.92679C4.14205 8.03075 3.50359 7.92672 2.94722 7.63083C2.41879 7.37723 1.95973 6.99927 1.60939 6.52936C1.25906 6.05944 1.0279 5.51158 0.935727 4.93274C0.843555 4.3539 0.89312 3.76133 1.08017 3.20585C1.26723 2.65036 1.58619 2.14851 2.00972 1.74333C2.79505 1.09247 3.76392 0.702912 4.78121 0.628967C5.79851 0.555023 6.81352 0.800381 7.68472 1.33083C8.93472 2.21833 8.30972 3.99333 8.30972 3.99333L14.7222 6.90583C17.8726 3.8768 22.0186 2.09929 26.3847 1.90583C31.3163 1.62973 36.2063 2.94424 40.3347 5.65583C41.3124 6.57695 42.1845 7.60412 42.9347 8.71833L49.8597 4.09333C49.7703 3.67862 49.7642 3.25027 49.8418 2.83319C49.9194 2.41611 50.0792 2.01862 50.3118 1.66385C50.5444 1.30908 50.8453 1.00411 51.1969 0.766676C51.5484 0.529245 51.9437 0.364093 52.3597 0.280828C52.8912 0.0626725 53.4658 -0.0304283 54.039 0.00871185C54.6123 0.0478521 55.1688 0.218187 55.6658 0.506568C56.1627 0.794949 56.5867 1.19366 56.9051 1.67194C57.2235 2.15021 57.4278 2.69525 57.5021 3.26498C57.5764 3.83471 57.5188 4.4139 57.3337 4.95784C57.1487 5.50178 56.8411 5.99592 56.4347 6.40212C56.0284 6.80833 55.5341 7.11572 54.9901 7.30059C54.4461 7.48545 53.8669 7.54284 53.2972 7.46833C52.8567 7.36286 52.435 7.18999 52.0472 6.95583L45.3847 12.4183C45.7786 13.1667 46.0928 13.9544 46.3222 14.7683C46.4222 15.4933 46.4722 16.2808 46.4722 16.2808C46.4722 16.2808 51.1097 16.0183 50.9472 20.3933C50.7847 24.7683 45.7972 25.3933 45.7972 25.3933C45.4736 27.0224 44.8098 28.5649 43.8491 29.9197C42.8884 31.2746 41.6525 32.4114 40.2222 33.2558C37.2999 35.111 34.0133 36.3174 30.5847 36.7933L31.0097 41.3308C32.3685 41.7139 33.525 42.6104 34.2347 43.8308C35.2722 45.7558 36.5722 47.9933 37.0972 47.9933C37.6222 47.9933 39.5972 46.2808 40.3222 45.7058C40.7629 45.4008 41.1371 45.0096 41.4222 44.5558C41.4222 44.5558 39.1347 41.1683 42.2597 39.7183C45.3847 38.2683 47.2222 40.6558 46.3347 43.1558C45.4472 45.6558 42.1722 45.3433 42.1722 45.3433C42.1722 45.3433 38.0597 49.4058 37.3222 49.4058C36.9245 49.4096 36.5301 49.333 36.1628 49.1804C35.7955 49.0279 35.4628 48.8027 35.1847 48.5183C34.2998 46.7346 33.2932 45.0139 32.1722 43.3683C31.5972 42.8933 31.1847 43.0558 31.1222 43.2058C31.0597 43.3558 33.4722 54.7183 33.1597 57.1683C32.9032 58.7283 32.1333 60.158 30.9722 61.2308L31.0722 62.4808C31.0722 62.4808 34.0472 62.0558 34.6222 63.6183C35.1972 65.1808 33.1097 66.3808 31.6472 66.1183C30.1847 65.8558 29.9347 65.3933 29.9347 65.1808C29.9347 64.9683 29.7222 61.6433 29.7222 61.6433L28.4722 61.4308C28.4722 61.4308 29.0472 65.4433 28.4722 65.8058C27.8972 66.1683 25.3972 66.6433 24.6597 65.9183C24.4516 65.679 24.308 65.3904 24.2426 65.08C24.1772 64.7697 24.1922 64.4477 24.2861 64.1447C24.38 63.8418 24.5497 63.5678 24.7791 63.3488C25.0086 63.1298 25.2902 62.973 25.5972 62.8933C27.2222 62.5308 27.5347 62.7308 27.5347 62.7308V61.1683C26.7383 60.6353 26.0939 59.9047 25.6645 59.048C25.235 58.1913 25.0353 57.2378 25.0847 56.2808C25.0847 52.7933 27.1722 42.2683 27.1722 42.2683C27.1722 42.2683 26.5472 41.5933 25.1847 43.2558C23.8198 45.3731 22.9011 47.7464 22.4847 50.2308C22.2722 51.7433 22.2222 52.2683 22.2222 52.2683C22.763 52.5403 23.2101 52.9676 23.5063 53.4954C23.8025 54.0233 23.9343 54.6276 23.8847 55.2308C23.8294 55.688 23.6606 56.1241 23.3937 56.4995C23.1269 56.8748 22.7704 57.1775 22.3568 57.3799C21.9431 57.5824 21.4854 57.6783 21.0253 57.6588C20.5652 57.6393 20.1172 57.5051 19.7222 57.2683C18.1597 56.2808 18.3722 53.8808 19.0472 52.8933C19.5235 52.288 20.1803 51.8502 20.9222 51.6433C20.9222 51.6433 22.0597 45.2808 23.4222 43.4683C24.1531 42.3073 25.2541 41.4265 26.5472 40.9683C26.9097 40.8558 27.3222 40.7558 27.3222 40.7558V37.2183Z" fill="#1D1D1B"/>
<path d="M3.93383 2.10588C4.23355 1.97357 4.55968 1.91193 4.88702 1.92572C5.21436 1.93952 5.53414 2.02837 5.82168 2.18543C6.10921 2.34248 6.35679 2.56353 6.54529 2.8315C6.7338 3.09947 6.85818 3.40719 6.90883 3.73088C7.02961 4.1755 7.01703 4.64583 6.87265 5.08336C6.72827 5.5209 6.45845 5.90634 6.09676 6.19175C5.73506 6.47717 5.29744 6.64996 4.83833 6.68865C4.37921 6.72733 3.91885 6.6302 3.5145 6.40933C3.11015 6.18847 2.77964 5.85361 2.56408 5.44641C2.34852 5.0392 2.25741 4.57761 2.30209 4.11904C2.34678 3.66047 2.52528 3.22515 2.81539 2.86722C3.10551 2.50928 3.49444 2.24453 3.93383 2.10588Z" fill="#C8DB89"/>
<path d="M52.8347 1.38096C53.1327 1.24849 53.4572 1.18639 53.7831 1.19946C54.1089 1.21253 54.4274 1.30042 54.7138 1.45632C55.0002 1.61223 55.247 1.83196 55.4348 2.09852C55.6227 2.36507 55.7467 2.67129 55.7972 2.99346C55.9213 3.43827 55.9115 3.90977 55.7692 4.34906C55.6268 4.78836 55.3582 5.17598 54.9968 5.46351C54.6355 5.75104 54.1974 5.92574 53.7374 5.96579C53.2774 6.00584 52.8157 5.90946 52.4101 5.68869C52.0045 5.46793 51.673 5.13256 51.4568 4.72447C51.2407 4.31639 51.1496 3.85367 51.1949 3.39411C51.2402 2.93456 51.4199 2.49854 51.7116 2.1405C52.0032 1.78246 52.3939 1.51829 52.8347 1.38096Z" fill="#C8DB89"/>
<path d="M9.35902 19.4058C9.63402 19.3183 9.50902 21.1808 9.77152 22.4808C10.034 23.7808 10.2465 24.5558 9.98402 24.5558C9.72152 24.5558 7.84652 24.7683 7.48402 23.0558C7.28654 22.3232 7.36923 21.5433 7.71593 20.8683C8.06264 20.1934 8.64847 19.672 9.35902 19.4058Z" fill="#C8DB89"/>
<path d="M46.7462 18.1559C47.0182 18.088 47.3016 18.0798 47.577 18.1321C47.8524 18.1843 48.1132 18.2957 48.3413 18.4585C48.5695 18.6213 48.7596 18.8317 48.8986 19.0751C49.0376 19.3185 49.1221 19.5892 49.1462 19.8684C49.5087 21.9059 46.3337 23.5184 46.1837 23.3059C46.0337 23.0934 46.6462 21.5309 46.6962 20.5434C46.627 19.7481 46.6438 18.9477 46.7462 18.1559Z" fill="#C8DB89"/>
<path d="M8.37212 5.44336C8.62212 5.44336 13.5221 7.63086 13.3096 8.04336C13.0971 8.45586 12.6846 9.14336 12.5346 9.04336C12.3846 8.94336 8.05962 6.90586 7.94712 6.64336C7.83462 6.38086 8.37212 5.44336 8.37212 5.44336Z" fill="#FAB900"/>
<path d="M44.084 9.40597C44.2965 9.30597 49.609 5.08097 49.9215 5.39347C50.234 5.70597 50.7965 6.18097 50.5465 6.43097C50.2965 6.68097 44.9715 11.231 44.809 10.9685C44.6465 10.706 44.084 9.40597 44.084 9.40597Z" fill="#FAB900"/>
<path d="M22.834 4.19305C26.584 2.84305 33.459 3.35555 38.9215 7.00555C44.384 10.6556 43.9215 21.3806 43.8215 22.5806C43.6711 23.4758 43.4108 24.3491 43.0465 25.1805C42.4539 24.1989 41.7718 23.2742 41.009 22.4181C40.7465 22.4181 40.0715 22.8931 40.334 23.1556C41.2353 24.2027 42.0036 25.3573 42.6215 26.593C42.5215 26.9055 41.634 28.3555 41.634 28.3555C40.9521 27.1939 40.1876 26.0827 39.3465 25.0305C39.134 25.0305 38.459 25.5431 38.559 25.7055C39.4594 26.9314 40.246 28.2368 40.909 29.6055C40.7465 29.868 39.659 30.968 39.5465 30.7555C39.0413 29.7476 38.4692 28.7746 37.834 27.843C37.6715 27.843 37.0965 28.1055 37.209 28.3555C37.3215 28.6055 39.134 31.4305 38.9215 31.693C38.5337 32.0422 38.1153 32.356 37.6715 32.6305C37.6715 32.6305 36.634 30.1305 36.4215 30.1305C36.209 30.1305 35.2715 30.6055 35.384 30.7555C35.4965 30.9055 36.734 32.9931 36.5215 33.2556C36.3007 33.4436 36.0571 33.6032 35.7965 33.7305L34.359 31.9055L33.6215 32.368C33.6215 32.368 34.7715 34.1431 34.559 34.1931L33.5215 34.5056C33.5215 34.5056 32.8965 33.1055 32.684 33.043C32.4715 32.9805 31.6465 33.043 31.809 33.2055C32.0687 33.6935 32.2942 34.1989 32.484 34.718C29.2718 35.3789 25.9587 35.3789 22.7465 34.718C20.1061 34.1414 17.7001 32.7842 15.8411 30.8225C13.982 28.8609 12.7557 26.3856 12.3215 23.718C11.2894 18.8757 12.11 13.8224 14.6215 9.55555C16.434 6.59305 19.6715 5.34305 22.834 4.19305Z" fill="#8EC480"/>
<path d="M17.3211 8.30562C17.6211 8.09312 18.1086 8.51812 17.9461 8.78062C16.8562 9.72219 16.0474 10.9463 15.6086 12.3181C14.9836 14.5556 15.2461 15.0806 14.9836 15.1306C14.7211 15.1806 14.0461 15.1306 13.9961 15.0306C14.1363 13.7922 14.4519 12.5801 14.9336 11.4306C15.5018 10.2332 16.3152 9.16859 17.3211 8.30562Z" fill="#1D1D1B"/>
<path d="M27.434 6.06841C28.7478 5.77821 30.1125 5.81175 31.4104 6.16614C32.7084 6.52054 33.9007 7.18516 34.8848 8.10277C35.8688 9.02037 36.615 10.1634 37.0591 11.4335C37.5032 12.7036 37.6318 14.0626 37.434 15.3934C36.584 23.1559 25.3965 26.1684 21.6465 20.9684C17.8965 15.7684 18.4215 8.41841 27.434 6.06841Z" fill="#1D1D1B"/>
<path d="M27.6969 8.29328C28.6773 8.06639 29.6983 8.08254 30.6711 8.34034C31.6438 8.59814 32.5388 9.08977 33.2782 9.77245C34.0175 10.4551 34.5789 11.3081 34.9133 12.2573C35.2477 13.2064 35.345 14.2229 35.1969 15.2183C34.5719 21.0308 26.2469 23.2308 23.4594 19.3683C20.6719 15.5058 20.9969 10.0308 27.6969 8.29328Z" fill="#E6E4DA"/>
<path d="M28.0964 11.5555C28.5774 11.4488 29.0771 11.4607 29.5525 11.5901C30.0279 11.7195 30.4647 11.9627 30.8252 12.2986C31.1856 12.6344 31.459 13.0529 31.6217 13.518C31.7843 13.9831 31.8314 14.4807 31.7589 14.968C31.4464 17.8305 27.3464 18.918 25.9714 17.0055C24.5964 15.093 24.7839 12.418 28.0964 11.5555Z" fill="#1D1D1B"/>
<path d="M21.2332 26.2808C21.9445 27.3168 22.9133 28.1498 24.0442 28.6977C25.1752 29.2457 26.4293 29.4897 27.6832 29.4058C30.1391 29.3839 32.4911 28.4117 34.2457 26.6933C34.6707 26.6933 35.4957 27.8433 35.3957 28.3558C35.2957 28.8683 32.6332 31.7933 27.5332 31.4808C22.4332 31.1683 20.0332 27.8933 20.0332 27.6308C20.0332 27.3683 20.8082 26.2808 21.2332 26.2808Z" fill="#1D1D1B"/>
<path d="M29.0835 39.4058C29.296 39.4058 31.5835 56.9058 31.0585 57.9433C30.5335 58.9808 27.8335 59.7183 27.3085 57.9433C26.7835 56.1683 28.521 39.4058 29.0835 39.4058Z" fill="#8EC480"/>
<path d="M20.9224 53.3059C21.7974 53.1309 22.6349 54.0934 22.6349 55.0309C22.6023 55.2671 22.5165 55.4928 22.3839 55.691C22.2514 55.8892 22.0756 56.0547 21.8698 56.1751C21.664 56.2955 21.4335 56.3675 21.1958 56.3859C20.958 56.4042 20.7192 56.3683 20.4974 56.2809C19.7224 55.8059 19.4099 53.6184 20.9224 53.3059Z" fill="#C8DB89"/>
<path d="M43.5221 40.6558C43.9693 40.6558 44.4009 40.82 44.735 41.1173C45.0691 41.4145 45.2825 41.8241 45.3346 42.2683C45.3346 43.2058 43.4596 44.1433 42.8346 43.8308C42.2096 43.5183 41.9596 40.9683 43.5221 40.6558Z" fill="#C8DB89"/>
</svg>
