<svg width="90" height="90" viewBox="0 0 90 90" fill="none" xmlns="http://www.w3.org/2000/svg">
<circle cx="45" cy="45" r="45" fill="black"/>
<path d="M25.8947 22.1443C29.7037 18.2561 34.4733 15.4444 39.7197 13.9943C47.9197 11.9568 54.4822 12.7443 58.9322 15.5568C63.3822 18.3693 64.7197 21.0193 64.7197 21.0193L67.6572 18.8318C67.6572 18.8318 64.7697 11.9568 70.8697 10.3193C76.9697 8.68184 78.1322 13.6818 77.8947 17.5818C77.6572 21.4818 74.9572 22.2693 73.9072 22.4318C72.7652 22.4182 71.6316 22.2328 70.5447 21.8818L67.1947 26.8818C68.342 29.3134 68.9719 31.9567 69.0447 34.6443C69.1722 36.9695 69.1262 39.301 68.9072 41.6193C68.9072 41.6193 73.3947 43.4943 73.5447 43.4943C73.6947 43.4943 77.1947 42.2443 78.4447 43.2818C79.6947 44.3193 79.3322 45.2693 79.3322 45.2693C79.3322 45.2693 81.8322 45.2693 81.2572 47.4568C81.1585 48.0317 80.915 48.572 80.5498 49.0269C80.1846 49.4817 79.7097 49.8362 79.1697 50.0568C79.5043 50.2329 79.7569 50.5327 79.8736 50.8923C79.9904 51.2519 79.9621 51.6428 79.7947 51.9818C79.3975 52.6699 78.7655 53.1915 78.0146 53.451C77.2637 53.7105 76.4445 53.6903 75.7072 53.3943C74.3438 52.4127 73.3247 51.0261 72.7947 49.4318C72.6112 48.8036 72.4898 48.1588 72.4322 47.5068L68.4697 46.2568C68.4697 46.2568 65.2447 57.0318 63.8322 61.4568C62.4197 65.8818 61.5947 68.7568 61.5947 68.7568C61.5947 68.7568 66.4322 68.7568 67.0072 71.1443C67.5822 73.5318 67.5322 77.2943 67.0072 77.6568C66.4822 78.0193 60.7572 78.4943 56.4947 78.4943C52.2322 78.4943 50.8197 77.5068 50.8697 76.8318C50.9197 76.1568 50.8697 67.3943 50.5572 67.2443C48.8969 67.0381 47.2175 67.0381 45.5572 67.2443C43.4697 67.4443 41.9572 68.0193 41.9072 68.4943C41.8572 68.9693 42.2197 77.6068 41.9072 78.1818C41.5947 78.7568 34.0947 79.3693 29.1947 79.4318C24.2947 79.4943 23.4697 79.4318 23.4697 78.9068C23.4697 78.3818 22.6322 72.6568 24.2572 71.7693C26.1548 71.1057 28.1289 70.6857 30.1322 70.5193C30.1322 70.5193 26.5447 60.7318 24.7697 55.8318C22.9947 50.9318 21.8072 47.1818 21.8072 47.1818L17.7447 48.3943C17.7447 48.3943 18.1072 50.4193 17.1197 51.1568C16.1322 51.8943 14.3072 52.4068 13.3697 51.1568C13.1104 50.7798 12.9379 50.3499 12.8644 49.8982C12.7909 49.4465 12.8183 48.9842 12.9447 48.5443C12.4274 48.2326 12.0013 47.7899 11.7094 47.2611C11.4176 46.7322 11.2702 46.1358 11.2822 45.5318C11.5447 43.7068 12.2697 43.0318 12.6947 42.8193C13.0491 42.7256 13.4167 42.6918 13.7822 42.7193C13.7822 42.7193 14.8697 40.6818 16.4072 41.0943C16.8201 41.1665 17.1996 41.3674 17.4915 41.6682C17.7833 41.9691 17.9726 42.3545 18.0322 42.7693L20.8447 41.7193C20.159 38.8487 20.1036 35.8635 20.6822 32.9693C21.0728 30.577 22.057 28.3207 23.5447 26.4068L18.0322 20.6318C17.2915 21.1574 16.4534 21.5298 15.5669 21.7273C14.6804 21.9247 13.7635 21.9433 12.8697 21.7818C10.1572 21.0943 7.65723 18.3943 9.81973 14.2818C11.9822 10.1693 18.9072 9.79434 20.6072 12.1443C22.3072 14.4943 20.6072 17.5568 20.6072 17.5568L25.8947 22.1443Z" fill="#1D1D1B"/>
<path d="M15.5557 43.8571L14.8682 42.7696C14.8682 42.7696 15.1307 41.5196 16.1807 41.9821C17.2307 42.4446 17.4307 43.9696 17.5807 43.9071C17.7307 43.8446 20.7057 42.7196 20.8682 43.0321C21.0307 43.3446 21.5432 46.0446 21.5432 46.0446C21.5432 46.0446 16.5432 47.2946 16.5432 47.6071C16.5432 47.9196 16.9557 49.6446 16.2807 50.2196C15.6057 50.7946 14.6182 50.8446 14.4057 50.4196C14.1932 49.9946 14.0432 48.9696 14.4057 48.9071C14.7682 48.8446 15.1307 48.6571 15.1307 48.4946C15.1307 48.3321 15.0307 47.6071 15.0307 47.6071C15.0307 47.6071 13.7807 48.0321 13.1557 47.3446C12.5307 46.6571 12.0057 44.7446 12.6557 44.2821C12.9289 44.0738 13.2581 43.9518 13.6011 43.9317C13.944 43.9117 14.2852 43.9945 14.5807 44.1696C14.8182 44.4821 15.5557 43.8571 15.5557 43.8571Z" fill="#BF7DD6"/>
<path d="M20.3447 43.9072C20.4447 44.0697 20.7072 44.7947 20.4447 44.9572C20.1265 45.0632 19.7925 45.114 19.4572 45.1072C19.4572 45.1072 18.9947 44.4322 19.1947 44.2822C19.5627 44.1145 19.9485 43.9887 20.3447 43.9072Z" fill="#1D1D1B"/>
<path d="M15.7567 12.1445C17.9192 11.7445 19.7692 12.657 20.0817 14.6445C20.3942 16.632 17.7942 19.6445 16.0192 20.3695C14.2442 21.0945 11.8567 20.9445 10.8692 19.432C9.88169 17.9195 9.55669 13.282 15.7567 12.1445Z" fill="#AD69E1"/>
<path d="M20.1572 18.6572C21.9385 20.1108 23.6098 21.6943 25.1572 23.3947C24.9271 23.9761 24.6111 24.5196 24.2197 25.0072C24.2197 25.0072 18.9072 20.4197 19.0947 20.1572C19.2822 19.8947 20.1572 18.6572 20.1572 18.6572Z" fill="#BF7DD6"/>
<path d="M71.282 11.8319C73.0445 11.2569 76.0695 11.5694 76.7445 15.6819C77.4195 19.7944 74.8695 21.3569 72.3195 20.8444C71.2162 20.6452 70.2305 20.0323 69.5638 19.131C68.897 18.2296 68.5995 17.1077 68.732 15.9944C68.832 13.7069 69.8195 12.2944 71.282 11.8319Z" fill="#AD69E1"/>
<path d="M68.3066 19.8447C68.4691 20.0572 69.8191 21.0947 69.6691 21.3072C69.5191 21.5197 66.8066 25.0572 66.8066 25.0572C66.3339 24.1628 65.9164 23.2403 65.5566 22.2947C65.6066 22.1447 68.3066 19.8447 68.3066 19.8447Z" fill="#BF7DD6"/>
<path d="M36.7432 16.7822C39.7932 15.3822 47.5807 14.3822 52.9932 15.2197C58.4057 16.0572 63.9057 22.5572 65.1557 27.1447C65.9554 30.2555 66.5154 33.4232 66.8307 36.6197C66.8307 36.6197 62.2932 33.9197 62.0807 34.1197C61.8682 34.3197 61.8307 35.0572 61.9807 35.1697C62.1307 35.2822 66.7182 37.2447 66.8307 37.6697C66.9432 38.0947 66.8307 40.8947 66.8307 40.8947C65.3582 40.148 63.8431 39.4885 62.2932 38.9197C62.1932 39.0697 61.7182 39.6947 62.2932 39.8572C63.8052 40.5624 65.2524 41.3989 66.6182 42.3572C66.6182 42.5572 66.2057 45.7322 66.2057 45.7322C66.2057 45.7322 62.7682 43.8072 62.6057 43.8572C62.4432 43.9072 62.2432 44.5947 62.4557 44.6447C62.6682 44.6947 66.0432 46.7322 65.9932 47.0447C65.9432 47.3572 61.4057 61.8322 61.2307 61.8822C60.3058 61.5496 59.4003 61.1656 58.5182 60.7322C58.5182 60.7322 58.1057 61.4697 58.3057 61.5697C58.5057 61.6697 60.9682 62.6572 60.8057 62.9197C60.6432 63.1822 60.3307 64.1697 60.3307 64.1697C59.4065 63.6252 58.431 63.173 57.4182 62.8197C57.2557 62.9697 56.9932 63.3447 57.2557 63.5447C58.2462 63.9462 59.2143 64.401 60.1557 64.9072C60.1557 65.1072 60.1557 65.9447 60.0057 65.9447C58.9832 65.4474 57.9312 65.0133 56.8557 64.6447C56.5932 64.7447 56.2807 65.2697 56.5932 65.4697C56.9057 65.6697 59.6682 66.8322 59.6182 67.1447C59.4925 67.5206 59.3335 67.8845 59.1432 68.2322C58.2374 67.6412 57.2983 67.1028 56.3307 66.6197C56.1807 66.6197 55.9682 67.3947 56.1182 67.5072C56.9973 67.9702 57.8338 68.5098 58.6182 69.1197C58.6182 69.2697 55.2932 69.4822 55.2432 69.8947C55.1495 70.2723 55.1495 70.6671 55.2432 71.0447C55.3432 71.2572 58.9932 71.0447 61.2807 71.3572C63.5682 71.6697 64.5682 71.6197 64.6682 72.1947C64.7682 72.7697 65.0307 76.3072 64.6682 76.4072C64.3057 76.5072 57.5307 76.4072 55.8182 76.3072C54.1057 76.2072 53.1557 75.8947 53.1557 75.5822C53.1557 75.2697 53.0557 65.8947 52.7932 65.5822C52.5307 65.2697 48.7307 64.7947 45.6557 64.9572C43.7414 65.0656 41.858 65.4879 40.0807 66.2072C39.587 65.7185 39.0469 65.2789 38.4682 64.8947C38.2557 64.8947 37.7432 65.2697 37.8932 65.5197C38.0432 65.7697 39.4557 66.9322 39.4557 67.0822C39.4356 67.2924 39.4022 67.5012 39.3557 67.7072C38.1757 66.8209 36.921 66.0388 35.6057 65.3697C35.3932 65.5197 35.1432 66.1447 35.3932 66.3072C36.7607 67.1898 38.0678 68.1628 39.3057 69.2197C39.3057 69.4822 39.4057 70.7322 39.4057 70.7322C39.4057 70.7322 36.1307 68.5447 35.9182 68.8572C35.7057 69.1697 35.6557 69.8447 35.8182 69.9572C35.9807 70.0697 39.3057 71.5197 39.3557 71.8822C39.4864 73.4419 39.4864 75.0099 39.3557 76.5697C39.1557 76.8322 26.0807 77.8197 25.9182 77.2947C25.7557 76.7697 25.7682 72.9197 26.1307 72.6572C26.4932 72.3947 34.2057 71.4072 34.3057 71.1447C34.4057 70.8822 34.4057 70.2072 34.1557 70.1572C33.9057 70.1072 32.4307 70.1572 32.3807 70.0572C32.3307 69.9572 25.4557 52.3947 23.9432 46.0447C22.4307 39.6947 21.8557 31.2572 26.4057 25.2697C30.9557 19.2822 32.9932 18.4947 36.7432 16.7822Z" fill="#A461AA"/>
<path d="M46.8055 19.1696C47.218 19.1696 47.218 20.4196 47.0555 20.4196C44.0465 20.2632 41.068 21.0879 38.568 22.7696C34.3555 25.6821 33.8805 26.7321 33.568 26.6196C33.2555 26.5071 32.693 26.3071 32.793 26.0446C34.4317 23.895 36.5438 22.1521 38.9653 20.9511C41.3868 19.7501 44.0525 19.1234 46.7555 19.1196L46.8055 19.1696Z" fill="#1D1D1B"/>
<path d="M60.0315 23.2822C61.0471 23.5536 61.9792 24.0734 62.744 24.7947C62.744 25.0572 62.744 25.5322 62.4815 25.3697C61.6204 25.0111 60.785 24.5934 59.9815 24.1197C59.869 23.9072 59.769 23.4947 60.0315 23.2822Z" fill="#1D1D1B"/>
<path d="M60.8684 26.7822C60.8684 26.7822 64.3559 28.1822 64.6184 28.9072C64.8809 29.6322 65.0309 29.7947 64.7184 29.7447C63.3382 29.2129 62.0114 28.5516 60.7559 27.7697C60.7059 27.5072 60.7059 26.8822 60.8684 26.7822Z" fill="#1D1D1B"/>
<path d="M61.4926 30.6821C62.8385 31.2756 64.1272 31.9911 65.3426 32.8196C65.4426 33.1821 65.8051 33.7071 65.3426 33.4946C63.9665 32.9368 62.6264 32.2939 61.3301 31.5696C61.3496 31.2685 61.4041 30.9707 61.4926 30.6821Z" fill="#1D1D1B"/>
<path d="M69.1437 42.8696C69.3562 42.9696 73.6188 44.7946 73.7812 44.8446C73.9437 44.8946 76.2812 43.7571 77.5312 44.1196C78.7812 44.4821 78.4687 45.1571 78.3562 45.4696C78.2437 45.7821 77.8938 46.4071 78.1562 46.6196C78.4187 46.8321 78.4187 46.9821 78.5687 46.9821C78.7187 46.9821 79.2437 46.2071 79.6687 46.4696C79.9258 46.7161 80.0831 47.0485 80.1108 47.4035C80.1384 47.7585 80.0345 48.1113 79.8187 48.3946C79.2618 49.019 78.5917 49.5322 77.8438 49.9071C77.6312 49.9071 77.5312 50.5321 77.7437 50.6821C77.9562 50.8321 79.0937 51.2071 78.8312 51.6696C78.6924 51.9305 78.4969 52.1569 78.259 52.3321C78.021 52.5073 77.7468 52.6269 77.4565 52.6821C77.1663 52.7373 76.8673 52.7266 76.5817 52.6509C76.2961 52.5752 76.0311 52.4364 75.8062 52.2446C74.3062 50.9946 73.8312 47.6571 73.7812 47.4071C73.659 46.9829 73.4457 46.5905 73.1562 46.2571C71.6747 45.8613 70.2145 45.3899 68.7812 44.8446C68.7812 44.6446 69.1437 42.8696 69.1437 42.8696Z" fill="#BF7DD6"/>
<path d="M45.8684 53.4946C46.0684 53.4946 50.4434 54.0196 53.6184 52.4571C56.7934 50.8946 58.7309 48.3946 59.1434 48.4946C59.5559 48.5946 60.1309 49.2196 60.0309 49.4321C58.7061 51.7416 56.6785 53.5678 54.2434 54.6446C50.2934 56.4071 46.3809 56.5696 46.0684 56.2571C45.7559 55.9446 45.3434 53.5946 45.8684 53.4946Z" fill="#1D1D1B"/>
<path d="M43.5193 27.3447C48.1568 26.3197 54.8693 27.6072 57.4818 33.1322C60.0943 38.6572 59.4068 46.0447 53.3693 49.4822C47.3318 52.9197 39.2443 52.8197 35.4943 49.2197C31.7443 45.6197 29.0443 30.5822 43.5193 27.3447Z" fill="#1D1D1B"/>
<path d="M43.8185 29.0069C47.8185 28.1194 53.6185 29.2319 55.8685 34.0069C58.1185 38.7819 57.531 45.1569 52.3185 48.1194C47.106 51.0819 40.156 50.9944 36.8935 47.8944C33.631 44.7944 31.3185 31.7944 43.8185 29.0069Z" fill="#E6E4DA"/>
<path d="M44.4806 35.8946C45.3163 35.7263 46.1843 35.8478 46.9417 36.239C47.699 36.6302 48.3005 37.2678 48.647 38.0466C48.9935 38.8254 49.0643 39.6991 48.8477 40.5235C48.6311 41.348 48.1401 42.074 47.4556 42.5821C45.6306 43.6196 43.1931 43.5946 42.0556 42.5071C41.6046 41.957 41.3049 41.2987 41.1862 40.5974C41.0675 39.896 41.1339 39.1758 41.3788 38.5079C41.6237 37.8401 42.0387 37.2477 42.5827 36.7894C43.1267 36.331 43.7809 36.0226 44.4806 35.8946Z" fill="#1D1D1B"/>
<path d="M45.4441 37.1444C45.7963 37.05 46.1677 37.0536 46.518 37.155C46.8683 37.2563 47.1842 37.4515 47.4316 37.7194C47.9441 38.3444 46.1816 39.7944 45.9691 39.6944C45.7566 39.5944 44.5066 37.6569 45.4441 37.1444Z" fill="#E6E4DA"/>
</svg>
