<svg width="90" height="90" viewBox="0 0 90 90" fill="none" xmlns="http://www.w3.org/2000/svg">
<circle cx="45" cy="45" r="45" fill="black"/>
<path d="M44.2251 62.2626C38.6141 59.14 33.8543 54.6892 30.3626 49.3001C24.7001 40.4251 23.8001 36.8001 24.1876 32.1126C24.5751 27.4251 25.7501 22.2626 29.6126 17.8876C33.4751 13.5126 42.2376 12.1501 46.6501 11.9501C51.0626 11.7501 58.4001 14.1376 62.2001 18.7501C66.0001 23.3626 66.8876 30.4626 64.8126 37.9251C62.7376 45.3876 59.8126 52.2626 56.6126 56.4501C53.4126 60.6376 51.9626 60.9001 51.1376 61.2501C50.3126 61.6001 47.3876 62.2251 47.3876 62.2251L47.5001 65.0001C48.4475 65.3884 49.3321 65.9149 50.1251 66.5626C50.8626 67.3501 52.9376 69.6501 52.6251 70.4376C52.4565 70.8303 52.1421 71.1423 51.748 71.3078C51.354 71.4734 50.9111 71.4796 50.5126 71.3251C50.1882 71.1252 49.9094 70.8595 49.6941 70.5451C49.4788 70.2308 49.3318 69.8748 49.2626 69.5001C49.205 68.7449 49.0321 68.003 48.7501 67.3001C48.6573 67.1974 48.5433 67.1163 48.4159 67.0623C48.2885 67.0083 48.1509 66.9828 48.0126 66.9876C48.1122 68.6568 48.0452 70.3317 47.8126 71.9876C47.4626 73.0876 47.1876 73.0126 47.1876 73.0126V75.0751C47.1876 75.0751 50.1626 74.8876 50.3501 75.7751C50.5376 76.6626 50.7126 77.7376 50.0001 77.8501C49.2876 77.9626 46.0251 78.4001 45.9751 77.7376C45.9251 77.0751 46.1376 73.4376 45.9751 73.4001C45.8126 73.3626 44.9126 73.1251 44.9126 73.3251C45.0127 74.8192 45.0127 76.3184 44.9126 77.8126C44.7126 77.9626 40.1126 78.2001 39.9126 77.8126C39.7126 77.4251 39.9126 75.1501 41.0126 74.9626C41.9725 74.9113 42.9322 75.0691 43.8251 75.4251L43.6251 73.1251C43.2951 72.1049 43.1512 71.0337 43.2001 69.9626C43.2327 68.9895 43.3371 68.0202 43.5126 67.0626C42.8109 67.2585 42.1561 67.5944 41.5876 68.0501C41.0501 68.6251 41.0126 68.9376 41.1626 69.3001C41.3126 69.6626 41.4751 70.0376 41.1626 70.2376C40.9726 70.4551 40.7131 70.6002 40.4283 70.648C40.1434 70.6959 39.8508 70.6436 39.6001 70.5001C38.6626 70.1126 38.4251 69.3376 39.1376 68.1251C39.8564 66.9851 40.9018 66.0878 42.1376 65.5501C42.7387 65.2185 43.4034 65.0182 44.0876 64.9626L44.2251 62.2626Z" fill="#1D1D1B"/>
<path d="M45.7131 62.8501C45.9881 62.8501 46.5756 62.8501 46.6131 64.6876C46.6506 66.5251 46.8006 71.8376 46.3006 71.9876C45.8006 72.1376 44.7381 72.3001 44.5006 71.8751C44.2631 71.4501 44.8131 62.8501 45.7131 62.8501Z" fill="#E6E4DA"/>
<path d="M46.4498 59.9251C45.3064 60.136 44.1254 59.9131 43.1373 59.3001C41.6498 58.3626 36.3373 53.0501 32.0373 47.7001C28.4534 43.1014 26.5995 37.3895 26.7998 31.5626C26.9623 27.1126 29.7748 19.9626 34.2248 17.3876C39.3789 14.6746 45.2762 13.7137 51.0248 14.6501C53.8029 15.1712 56.3865 16.4391 58.4985 18.3176C60.6104 20.1961 62.1709 22.6143 63.0123 25.3126C64.6498 30.5126 61.8373 40.2376 60.5123 43.7501C59.2934 46.5597 57.8687 49.2754 56.2498 51.8751C56.2498 51.8751 55.4623 50.6251 55.2623 50.6251C55.0623 50.6251 54.4498 50.9001 54.5998 51.0626C54.7498 51.2251 55.8498 52.5001 55.6998 52.7751C55.5498 53.0501 54.5248 54.5251 54.5248 54.5251C54.5248 54.5251 53.6373 53.1376 53.5248 53.1876C53.4123 53.2376 52.7623 53.3626 52.9623 53.7126C53.1623 54.0626 54.1373 55.1501 53.9748 55.4251C53.7456 55.7936 53.4586 56.1228 53.1248 56.4001C52.8873 56.5626 51.5998 54.8251 51.4748 54.8251C51.3498 54.8251 50.9748 54.8251 50.8873 55.1001C50.7998 55.3751 52.2623 57.1501 52.1373 57.3876C51.7158 57.8662 51.2324 58.2866 50.6998 58.6376L50.3873 58.7626C49.7925 57.799 49.1457 56.8685 48.4498 55.9751C48.2873 55.9751 47.5873 56.2126 47.6998 56.4876C47.8123 56.7626 49.5623 58.9876 49.3748 59.1501C48.8763 59.4104 48.3528 59.6198 47.8123 59.7751C47.8123 59.7751 46.5748 57.5001 46.3373 57.5001C46.0998 57.5001 45.5123 57.7376 45.5498 57.9251C45.5873 58.1126 46.4498 59.9251 46.4498 59.9251Z" fill="#E6E4DA"/>
<path d="M32.1484 24.2626C32.386 23.1503 32.8973 22.1149 33.6359 21.2501C35.0109 19.4501 36.2984 19.0626 36.5234 19.1376C36.7484 19.2126 37.0359 20.1501 36.9609 20.2751C36.8859 20.4001 34.8859 21.3251 34.4609 22.3876C34.0359 23.4501 33.8734 24.4501 33.5234 24.6501C33.2821 24.7337 33.021 24.7414 32.7751 24.6721C32.5293 24.6028 32.3106 24.4599 32.1484 24.2626Z" fill="#1D1D1B"/>
<path d="M50 50.7376C49.0101 51.3229 47.8871 51.6456 46.7375 51.6751C44.4875 51.8626 43.3375 51.1751 43.2375 50.9501C43.1375 50.7251 43.65 49.8876 43.7875 49.8751C43.925 49.8626 45.9625 50.7001 47.0375 50.3126C48.1125 49.9251 48.9625 49.3501 49.3375 49.4876C49.5612 49.6046 49.7443 49.7867 49.8626 50.0099C49.9808 50.233 50.0287 50.4867 50 50.7376Z" fill="#1D1D1B"/>
<path d="M35.1617 30.1626C36.9367 29.9501 41.4117 31.6376 43.7992 36.5251C46.1867 41.4126 43.6367 44.0251 41.0617 43.9501C38.4867 43.8751 35.9492 43.2001 33.0117 39.6126C30.0742 36.0251 30.2367 33.0126 31.0992 32.1126C32.1541 30.9669 33.608 30.269 35.1617 30.1626Z" fill="#1D1D1B"/>
<path d="M54.6992 30.1624C56.6492 29.1749 60.9492 29.8499 60.4742 34.3749C60.2941 36.2293 59.5544 37.9852 58.3534 39.4095C57.1523 40.8338 55.5466 41.8593 53.7492 42.3499C50.6992 43.1624 47.9617 42.9749 47.6867 39.9624C47.4117 36.9499 48.5992 33.1999 54.6992 30.1624Z" fill="#1D1D1B"/>
</svg>
