<svg width="42" height="68" viewBox="0 0 42 68" fill="none" xmlns="http://www.w3.org/2000/svg">
<path d="M20.1157 51.2626C14.5047 48.14 9.74491 43.6892 6.25323 38.3001C0.59073 29.4251 -0.30927 25.8001 0.0782296 21.1126C0.46573 16.4251 1.64073 11.2626 5.50323 6.88759C9.36573 2.51259 18.1282 1.15009 22.5407 0.950092C26.9532 0.750092 34.2907 3.13759 38.0907 7.75009C41.8907 12.3626 42.7782 19.4626 40.7032 26.9251C38.6282 34.3876 35.7032 41.2626 32.5032 45.4501C29.3032 49.6376 27.8532 49.9001 27.0282 50.2501C26.2032 50.6001 23.2782 51.2251 23.2782 51.2251L23.3907 54.0001C24.3381 54.3884 25.2227 54.9149 26.0157 55.5626C26.7532 56.3501 28.8282 58.6501 28.5157 59.4376C28.3471 59.8303 28.0327 60.1423 27.6387 60.3078C27.2446 60.4734 26.8017 60.4796 26.4032 60.3251C26.0789 60.1252 25.8 59.8595 25.5847 59.5451C25.3694 59.2308 25.2224 58.8748 25.1532 58.5001C25.0956 57.7449 24.9228 57.003 24.6407 56.3001C24.548 56.1974 24.4339 56.1163 24.3065 56.0623C24.1791 56.0083 24.0415 55.9828 23.9032 55.9876C24.0028 57.6568 23.9358 59.3317 23.7032 60.9876C23.3532 62.0876 23.0782 62.0126 23.0782 62.0126V64.0751C23.0782 64.0751 26.0532 63.8876 26.2407 64.7751C26.4282 65.6626 26.6032 66.7376 25.8907 66.8501C25.1782 66.9626 21.9157 67.4001 21.8657 66.7376C21.8157 66.0751 22.0282 62.4376 21.8657 62.4001C21.7032 62.3626 20.8032 62.1251 20.8032 62.3251C20.9033 63.8192 20.9033 65.3184 20.8032 66.8126C20.6032 66.9626 16.0032 67.2001 15.8032 66.8126C15.6032 66.4251 15.8032 64.1501 16.9032 63.9626C17.8632 63.9113 18.8228 64.0691 19.7157 64.4251L19.5157 62.1251C19.1858 61.1049 19.0418 60.0337 19.0907 58.9626C19.1233 57.9895 19.2278 57.0202 19.4032 56.0626C18.7015 56.2585 18.0467 56.5944 17.4782 57.0501C16.9407 57.6251 16.9032 57.9376 17.0532 58.3001C17.2032 58.6626 17.3657 59.0376 17.0532 59.2376C16.8632 59.4551 16.6037 59.6002 16.3189 59.648C16.034 59.6959 15.7414 59.6436 15.4907 59.5001C14.5532 59.1126 14.3157 58.3376 15.0282 57.1251C15.747 55.9851 16.7924 55.0878 18.0282 54.5501C18.6293 54.2185 19.294 54.0182 19.9782 53.9626L20.1157 51.2626Z" fill="#1D1D1B"/>
<path d="M21.6038 51.8501C21.8788 51.8501 22.4663 51.8501 22.5038 53.6876C22.5413 55.5251 22.6913 60.8376 22.1913 60.9876C21.6913 61.1376 20.6288 61.3001 20.3913 60.8751C20.1538 60.4501 20.7038 51.8501 21.6038 51.8501Z" fill="#E6E4DA"/>
<path d="M22.3405 48.9251C21.197 49.136 20.016 48.9131 19.028 48.3001C17.5405 47.3626 12.228 42.0501 7.92797 36.7001C4.34399 32.1014 2.49016 26.3895 2.69047 20.5626C2.85297 16.1126 5.66547 8.96262 10.1155 6.38762C15.2695 3.67461 21.1668 2.71367 26.9155 3.65012C29.6935 4.17125 32.2771 5.43911 34.3891 7.31761C36.501 9.19611 38.0615 11.6143 38.903 14.3126C40.5405 19.5126 37.728 29.2376 36.403 32.7501C35.1841 35.5597 33.7594 38.2754 32.1405 40.8751C32.1405 40.8751 31.353 39.6251 31.153 39.6251C30.953 39.6251 30.3405 39.9001 30.4905 40.0626C30.6405 40.2251 31.7405 41.5001 31.5905 41.7751C31.4405 42.0501 30.4155 43.5251 30.4155 43.5251C30.4155 43.5251 29.528 42.1376 29.4155 42.1876C29.303 42.2376 28.653 42.3626 28.853 42.7126C29.053 43.0626 30.028 44.1501 29.8655 44.4251C29.6362 44.7936 29.3492 45.1228 29.0155 45.4001C28.778 45.5626 27.4905 43.8251 27.3655 43.8251C27.2405 43.8251 26.8655 43.8251 26.778 44.1001C26.6905 44.3751 28.153 46.1501 28.028 46.3876C27.6064 46.8662 27.123 47.2866 26.5905 47.6376L26.278 47.7626C25.6831 46.799 25.0363 45.8685 24.3405 44.9751C24.178 44.9751 23.478 45.2126 23.5905 45.4876C23.703 45.7626 25.453 47.9876 25.2655 48.1501C24.7669 48.4104 24.2435 48.6198 23.703 48.7751C23.703 48.7751 22.4655 46.5001 22.228 46.5001C21.9905 46.5001 21.403 46.7376 21.4405 46.9251C21.478 47.1126 22.3405 48.9251 22.3405 48.9251Z" fill="#E6E4DA"/>
<path d="M8.03906 13.2626C8.27663 12.1503 8.7879 11.1149 9.52656 10.2501C10.9016 8.45008 12.1891 8.06258 12.4141 8.13758C12.6391 8.21258 12.9266 9.15008 12.8516 9.27508C12.7766 9.40008 10.7766 10.3251 10.3516 11.3876C9.92656 12.4501 9.76406 13.4501 9.41406 13.6501C9.17273 13.7337 8.91158 13.7414 8.66575 13.6721C8.41992 13.6028 8.20122 13.4599 8.03906 13.2626Z" fill="#1D1D1B"/>
<path d="M25.8906 39.7376C24.9007 40.3229 23.7777 40.6456 22.6281 40.6751C20.3781 40.8626 19.2281 40.1751 19.1281 39.9501C19.0281 39.7251 19.5406 38.8876 19.6781 38.8751C19.8156 38.8626 21.8531 39.7001 22.9281 39.3126C24.0031 38.9251 24.8531 38.3501 25.2281 38.4876C25.4518 38.6046 25.6349 38.7867 25.7532 39.0099C25.8714 39.233 25.9193 39.4867 25.8906 39.7376Z" fill="#1D1D1B"/>
<path d="M11.0523 19.1626C12.8273 18.9501 17.3023 20.6376 19.6898 25.5251C22.0773 30.4126 19.5273 33.0251 16.9523 32.9501C14.3773 32.8751 11.8398 32.2001 8.90234 28.6126C5.96484 25.0251 6.12734 22.0126 6.98984 21.1126C8.04472 19.9669 9.49859 19.269 11.0523 19.1626Z" fill="#1D1D1B"/>
<path d="M30.5898 19.1624C32.5398 18.1749 36.8398 18.8499 36.3648 23.3749C36.1847 25.2293 35.4451 26.9852 34.244 28.4095C33.0429 29.8338 31.4372 30.8593 29.6398 31.3499C26.5898 32.1624 23.8523 31.9749 23.5773 28.9624C23.3023 25.9499 24.4898 22.1999 30.5898 19.1624Z" fill="#1D1D1B"/>
</svg>
