<svg width="66" height="66" viewBox="0 0 66 66" fill="none" xmlns="http://www.w3.org/2000/svg">
<path d="M12.4023 16.675L5.6273 10.9375C5.01878 11.3886 4.26809 11.6053 3.51279 11.5479C2.7575 11.4905 2.04817 11.1629 1.5148 10.625C-0.460201 8.70004 0.264798 5.00004 3.2398 3.70004C6.2148 2.40004 9.6398 2.71254 10.7398 4.75004C11.8398 6.78754 9.7023 8.50004 9.7023 8.50004L16.1023 13C19.4351 9.78978 23.4339 7.35289 27.8148 5.86254C35.2148 3.36254 46.3023 7.32504 47.8148 8.00004C49.3273 8.67504 50.6773 9.46254 50.6773 9.46254L54.2273 6.28754C54.2273 6.28754 52.3523 3.00004 55.3148 1.25004C56.0244 0.799905 56.8159 0.494211 57.6438 0.350477C58.4718 0.206743 59.3199 0.227794 60.1397 0.412424C60.9595 0.597054 61.7349 0.941634 62.4213 1.42642C63.1077 1.9112 63.6917 2.52667 64.1398 3.23754C66.3273 6.46254 65.3273 9.68754 62.5773 10.3125C61.7473 10.4896 60.8902 10.4979 60.057 10.3368C59.2238 10.1758 58.4315 9.84869 57.7273 9.37504L54.5523 12.7125C54.5523 12.7125 59.1898 16.5625 59.9148 24.8C60.5665 31.9225 59.5876 39.0998 57.0523 45.7875C55.1148 50.3125 52.8898 54.6375 52.8898 54.6375C52.8898 54.6375 57.3148 53.75 59.6023 56.3125C61.8898 58.875 62.4148 60.7875 63.0898 61C63.7648 61.2125 64.4523 61.25 63.8273 62.45C63.4336 63.0115 62.8967 63.4572 62.2723 63.7407C61.648 64.0243 60.9591 64.1354 60.2773 64.0625C59.1506 63.7097 57.9613 63.6031 56.7898 63.75C55.9523 64.0625 53.0398 65.575 50.0773 64.275C47.1148 62.975 46.0648 62.7625 44.4523 63.025C42.8398 63.2875 39.4523 65.2125 36.0648 65.05C34.2199 64.9369 32.4071 64.5144 30.7023 63.8C30.2773 63.8 27.5773 66.0375 24.4523 65.8375C21.3273 65.6375 21.1148 64.425 18.7148 64.5875C16.3148 64.75 13.0898 65.575 11.5898 65.675C10.0898 65.775 7.7273 65.8875 7.0023 65.475C6.2773 65.0625 6.2773 61.825 7.9898 59.6875C9.51312 57.6316 11.7363 56.2043 14.2398 55.675C15.9094 55.5865 17.5837 55.6576 19.2398 55.8875C19.4523 55.8875 14.1398 48.3875 11.1148 39.425C8.0898 30.4625 9.1398 21.675 12.4023 16.675Z" fill="#1D1D1B"/>
<path d="M54.8035 56.7502C51.8785 56.3377 49.4285 59.4002 49.116 59.6627C48.8035 59.9252 47.866 58.9877 47.666 58.6752C47.466 58.3627 47.666 58.4127 48.1785 57.5252C48.9693 56.5945 49.8624 55.7558 50.841 55.0252C50.9803 54.493 51.1557 53.971 51.366 53.4627C51.6785 52.7252 53.7535 48.3502 55.116 44.7127C56.9661 39.004 57.9026 33.0388 57.891 27.0377C57.7785 20.8877 55.7035 14.7502 49.241 11.5627C42.7785 8.37521 37.266 6.67521 28.766 8.38771C20.266 10.1002 18.141 14.0127 18.141 14.0127L21.9535 16.9377C22.5035 17.3502 18.4285 21.9377 17.8035 21.7377C17.5535 21.6627 14.0535 18.4377 14.0535 18.4377C13.1159 19.838 12.4775 21.4168 12.1785 23.0752C11.4535 26.3127 11.5035 31.8252 13.491 38.8627C15.4785 45.9002 20.891 55.2627 20.891 55.2627C21.9552 54.8874 23.0404 54.5743 24.141 54.3252C24.4657 54.2574 24.8013 54.2603 25.1248 54.3336C25.4483 54.407 25.7523 54.549 26.016 54.7502C26.016 54.7502 26.3285 55.5752 25.9535 55.7377C24.3824 56.4645 22.7666 57.0908 21.116 57.6127C18.616 58.3877 17.0035 57.4502 13.716 57.8752C10.4285 58.3002 8.91602 63.0002 8.91602 63.5502C8.91602 64.1002 10.741 63.9127 12.5035 63.7502C14.266 63.5877 16.616 62.1877 18.0285 62.1377C19.441 62.0877 20.741 63.0752 24.066 63.1877C26.0072 63.3107 27.9231 62.6944 29.4285 61.4627C30.5285 60.8877 31.991 58.2377 33.916 57.7127C35.841 57.1877 36.7285 57.6127 38.7035 58.2377C40.1566 58.5977 41.6755 58.5977 43.1285 58.2377C43.2789 58.2139 43.4327 58.2253 43.578 58.2708C43.7233 58.3163 43.8561 58.3949 43.966 58.5002C44.2785 58.7502 43.0785 60.4752 40.991 61.0002C38.9035 61.5252 34.1785 59.8627 33.491 60.0127C32.8035 60.1627 32.5035 61.5752 32.716 61.7877C34.5953 62.417 36.5731 62.7008 38.5535 62.6252C41.1535 62.5127 43.341 60.8502 46.8285 60.7502C50.316 60.6502 52.191 62.5627 53.0785 62.8252C53.966 63.0877 55.266 62.2502 56.2535 61.9377C57.241 61.6252 59.491 61.9377 59.7535 61.6877C60.016 61.4377 57.716 57.1377 54.8035 56.7502Z" fill="#696A9B"/>
<path d="M52.1914 9.90018C52.3539 9.80018 55.8414 6.51268 55.8414 6.51268C55.8414 6.51268 53.8664 4.01268 56.3664 2.35018C58.8664 0.687676 62.1414 2.25018 63.4414 4.58768C64.7414 6.92518 63.0789 9.12518 61.5664 8.96268C60.0539 8.80018 58.3414 7.61268 57.7164 7.87518C57.0914 8.13768 54.0664 11.5127 53.8039 11.4627C53.2193 10.9928 52.6795 10.4697 52.1914 9.90018Z" fill="#92A0D1"/>
<path d="M17.7148 22.2502C18.5657 22.6337 19.4955 22.8099 20.4277 22.7643C21.3599 22.7186 22.268 22.4525 23.0773 21.9877C24.4897 20.9657 25.5473 19.5278 26.1023 17.8752C26.2708 17.8125 26.4557 17.8092 26.6262 17.8661C26.7968 17.9229 26.9427 18.0364 27.0398 18.1877C27.3023 18.5502 26.5648 21.2002 24.5398 22.6627C23.8703 23.2371 23.0899 23.6677 22.247 23.9279C21.404 24.1881 20.5166 24.2723 19.6398 24.1752C17.9773 24.0627 17.6648 24.0627 17.4023 23.7502C17.1398 23.4377 17.5023 22.2502 17.7148 22.2502Z" fill="#1D1D1B"/>
<path d="M15.7399 29.0126C15.9774 28.6626 16.7774 29.0126 16.7274 29.4876C16.4097 30.9661 16.5358 32.5055 17.0899 33.9126C17.9774 36.2501 18.4399 36.3126 18.2399 36.6751C18.0399 37.0376 17.3524 37.4001 16.9899 37.1876C16.1567 35.9256 15.6106 34.4962 15.3899 33.0001C15.0405 31.6706 15.1642 30.2609 15.7399 29.0126Z" fill="#1D1D1B"/>
<path d="M29.0664 29.6874C29.3218 28.5367 29.9885 27.5188 30.9414 26.8249C32.6164 25.5749 33.6039 25.4749 33.8664 25.5749C34.1289 25.6749 34.4289 26.1999 34.2289 26.4624C34.0289 26.7249 32.4039 26.7499 31.3039 27.9999C30.2039 29.2499 30.2164 30.2874 29.9539 30.3374C29.6914 30.3874 29.3289 29.8499 29.0664 29.6874Z" fill="#1D1D1B"/>
<path d="M43.7023 22.0875C45.084 22.0785 46.42 22.5817 47.4523 23.5C49.2773 25.0625 49.5398 26.4125 49.3273 26.675C49.0677 26.8905 48.7652 27.0481 48.4398 27.1375C48.2508 25.9945 47.6397 24.9641 46.7273 24.25C45.7657 23.7391 44.727 23.3886 43.6523 23.2125C43.4398 23.1875 43.3898 22.3 43.7023 22.0875Z" fill="#1D1D1B"/>
<path d="M36.5159 32.4999C37.9409 31.9124 39.8034 33.1249 40.0534 35.3749C40.3034 37.6249 39.8034 39.1249 38.2909 39.1249C36.7784 39.1249 35.2659 37.1374 35.0034 35.8874C34.7812 35.2361 34.8136 34.5248 35.0942 33.8965C35.3747 33.2681 35.8826 32.7692 36.5159 32.4999Z" fill="#1D1D1B"/>
<path d="M36.9776 33.9998C37.7401 33.6873 38.7401 34.3373 38.8776 35.5373C39.0151 36.7373 38.7401 37.5248 37.9276 37.5498C37.1151 37.5748 36.3151 36.4873 36.1651 35.8248C36.047 35.4742 36.0649 35.0919 36.2154 34.7538C36.3659 34.4158 36.638 34.1467 36.9776 33.9998Z" fill="#CBE7F5"/>
<path d="M44.4278 30.3127C45.9153 29.3252 47.3528 30.4752 47.3028 33.7002C47.2802 34.8177 46.9466 35.9068 46.3394 36.8452C45.7322 37.7836 44.8754 38.5342 43.8653 39.0127C43.6022 39.1199 43.3156 39.1563 43.0341 39.1182C42.7526 39.0801 42.4859 38.9689 42.2608 38.7956C42.0357 38.6223 41.8599 38.3931 41.751 38.1307C41.6422 37.8683 41.604 37.5819 41.6403 37.3002C41.6403 35.5752 43.0278 31.2502 44.4278 30.3127Z" fill="#1D1D1B"/>
<path d="M45.2157 31.4625C45.7657 31.3 46.6782 33.2875 45.6782 35.375C44.6782 37.4625 43.6532 37.6624 43.3907 37.4999C43.1282 37.3374 43.2407 35.8874 43.7532 34.2249C44.2657 32.5624 44.6907 31.625 45.2157 31.4625Z" fill="#CBE7F5"/>
<path d="M32.4534 42.8125C33.3909 42.625 34.0159 43.5 35.0534 44.5875C36.0909 45.675 36.1034 46.4625 37.8159 46.625C39.5284 46.7875 40.2159 46.4125 40.3159 46.775C40.4159 47.1375 40.5284 47.35 40.1659 47.6125C39.8034 47.875 37.5534 49.175 33.7034 47.7125C29.8534 46.25 29.2284 43.5 32.4534 42.8125Z" fill="#1D1D1B"/>
<path d="M53.4409 36.6251C53.7284 36.4501 55.4284 37.6626 55.2659 38.0751C55.1034 38.4876 55.1659 38.6001 54.8534 38.6001C54.0592 38.4206 53.3236 38.0421 52.7159 37.5001C52.5534 37.1376 53.0784 36.8251 53.4409 36.6251Z" fill="#1D1D1B"/>
<path d="M50.6789 39.5874C50.8539 39.4624 53.8664 40.5749 53.8664 41.0499C53.8664 41.5249 53.6039 42.0374 53.3414 42.0374C52.1838 41.7529 51.0636 41.3334 50.0039 40.7874C50.1337 40.3408 50.3647 39.9302 50.6789 39.5874Z" fill="#1D1D1B"/>
<path d="M49.541 42.8125C50.0035 42.7375 53.291 44.8 53.291 45.1125C53.291 45.425 53.1785 45.6875 52.916 45.6875C52.6535 45.6875 48.8535 44.125 48.8535 43.7C48.8709 43.5017 48.945 43.3126 49.0669 43.1553C49.1888 42.9979 49.3534 42.8789 49.541 42.8125Z" fill="#1D1D1B"/>
<path d="M47.715 45.7375C48.0525 45.4 51.9275 47.925 51.9275 48.2375C51.9275 48.55 51.7775 48.8125 51.515 48.8125C50.0358 48.2588 48.6229 47.5419 47.3025 46.675C47.19 46.3625 47.5525 45.8875 47.715 45.7375Z" fill="#1D1D1B"/>
<path d="M46.1039 48.3376C46.4039 48.2376 50.7414 51.0001 50.6789 51.4126C50.6628 51.5356 50.6225 51.6541 50.5603 51.7614C50.4981 51.8687 50.4152 51.9626 50.3164 52.0376C48.5959 51.355 46.9252 50.553 45.3164 49.6376C45.4328 49.1311 45.7089 48.6754 46.1039 48.3376Z" fill="#1D1D1B"/>
<path d="M44.3784 51.75C44.3784 51.75 49.2284 54.35 49.1159 54.6125C49.0034 54.875 49.1159 55.0875 48.7034 55.0875C48.2909 55.0875 44.0159 53.675 43.8659 53.2625C43.7159 52.85 44.0659 51.75 44.3784 51.75Z" fill="#1D1D1B"/>
<path d="M43.1793 54.6378C43.5418 54.5253 45.8918 56.0502 45.7418 56.4127C45.5918 56.7752 45.6293 56.9378 45.3668 56.8253C44.3424 56.5021 43.3506 56.0836 42.4043 55.5753C42.5815 55.2037 42.8477 54.8817 43.1793 54.6378Z" fill="#1D1D1B"/>
<path d="M19.9784 17.55C16.7409 15.2375 7.92839 8.54998 7.97839 8.28748C8.02839 8.02498 9.74089 7.13748 9.11589 5.78748C8.49089 4.43748 6.46589 4.24998 5.00339 4.58748C2.04089 5.31248 1.05339 8.54998 2.50339 9.58748C3.95339 10.625 5.47839 9.37498 5.94089 9.43748C6.40339 9.49998 15.6659 17.4375 18.0159 19.55L19.9784 17.55Z" fill="#92A0D1"/>
</svg>
