<svg width="90" height="90" viewBox="0 0 90 90" fill="none" xmlns="http://www.w3.org/2000/svg">
<circle cx="45" cy="45" r="45" fill="black"/>
<path d="M24.9941 28.4187L18.2191 22.6812C17.6106 23.1323 16.8599 23.349 16.1046 23.2916C15.3493 23.2342 14.64 22.9065 14.1066 22.3687C12.1316 20.4437 12.8566 16.7437 15.8316 15.4437C18.8066 14.1437 22.2316 14.4562 23.3316 16.4937C24.4316 18.5312 22.2941 20.2437 22.2941 20.2437L28.6941 24.7437C32.0269 21.5334 36.0257 19.0965 40.4066 17.6062C47.8066 15.1062 58.8941 19.0687 60.4066 19.7437C61.9191 20.4187 63.2691 21.2062 63.2691 21.2062L66.8191 18.0312C66.8191 18.0312 64.9441 14.7437 67.9066 12.9937C68.6162 12.5436 69.4076 12.2379 70.2356 12.0941C71.0636 11.9504 71.9117 11.9714 72.7315 12.1561C73.5513 12.3407 74.3267 12.6853 75.0131 13.1701C75.6995 13.6549 76.2835 14.2703 76.7316 14.9812C78.9191 18.2062 77.9191 21.4312 75.1691 22.0562C74.3391 22.2333 73.482 22.2416 72.6488 22.0805C71.8156 21.9194 71.0233 21.5923 70.3191 21.1187L67.1441 24.4562C67.1441 24.4562 71.7816 28.3062 72.5066 36.5437C73.1583 43.6661 72.1794 50.8434 69.6441 57.5312C67.7066 62.0562 65.4816 66.3812 65.4816 66.3812C65.4816 66.3812 69.9066 65.4937 72.1941 68.0562C74.4816 70.6187 75.0066 72.5312 75.6816 72.7437C76.3566 72.9562 77.0441 72.9937 76.4191 74.1937C76.0254 74.7551 75.4885 75.2008 74.8641 75.4844C74.2398 75.768 73.5509 75.8791 72.8691 75.8062C71.7424 75.4533 70.553 75.3467 69.3816 75.4937C68.5441 75.8062 65.6316 77.3187 62.6691 76.0187C59.7066 74.7187 58.6566 74.5062 57.0441 74.7687C55.4316 75.0312 52.0441 76.9562 48.6566 76.7937C46.8117 76.6806 44.9989 76.258 43.2941 75.5437C42.8691 75.5437 40.1691 77.7812 37.0441 77.5812C33.9191 77.3812 33.7066 76.1687 31.3066 76.3312C28.9066 76.4937 25.6816 77.3187 24.1816 77.4187C22.6816 77.5187 20.3191 77.6312 19.5941 77.2187C18.8691 76.8062 18.8691 73.5687 20.5816 71.4312C22.1049 69.3752 24.3281 67.9479 26.8316 67.4187C28.5012 67.3301 30.1755 67.4013 31.8316 67.6312C32.0441 67.6312 26.7316 60.1312 23.7066 51.1687C20.6816 42.2062 21.7316 33.4187 24.9941 28.4187Z" fill="#1D1D1B"/>
<path d="M67.3953 68.4939C64.4703 68.0814 62.0203 71.1439 61.7078 71.4064C61.3953 71.6689 60.4578 70.7314 60.2578 70.4189C60.0578 70.1064 60.2578 70.1564 60.7703 69.2689C61.561 68.3381 62.4542 67.4995 63.4328 66.7689C63.5721 66.2367 63.7475 65.7147 63.9578 65.2064C64.2703 64.4689 66.3453 60.0939 67.7078 56.4564C69.5579 50.7476 70.4944 44.7824 70.4828 38.7814C70.3703 32.6314 68.2953 26.4939 61.8328 23.3064C55.3703 20.1189 49.8578 18.4189 41.3578 20.1314C32.8578 21.8439 30.7328 25.7564 30.7328 25.7564L34.5453 28.6814C35.0953 29.0939 31.0203 33.6814 30.3953 33.4814C30.1453 33.4064 26.6453 30.1814 26.6453 30.1814C25.7077 31.5816 25.0693 33.1604 24.7703 34.8189C24.0453 38.0564 24.0953 43.5689 26.0828 50.6064C28.0703 57.6439 33.4828 67.0064 33.4828 67.0064C34.547 66.631 35.6322 66.318 36.7328 66.0689C37.0575 66.0011 37.3931 66.0039 37.7166 66.0773C38.0401 66.1506 38.3441 66.2927 38.6078 66.4939C38.6078 66.4939 38.9203 67.3189 38.5453 67.4814C36.9742 68.2082 35.3584 68.8345 33.7078 69.3564C31.2078 70.1314 29.5953 69.1939 26.3078 69.6189C23.0203 70.0439 21.5078 74.7439 21.5078 75.2939C21.5078 75.8439 23.3328 75.6564 25.0953 75.4939C26.8578 75.3314 29.2078 73.9314 30.6203 73.8814C32.0328 73.8314 33.3328 74.8189 36.6578 74.9314C38.599 75.0543 40.5149 74.438 42.0203 73.2064C43.1203 72.6314 44.5828 69.9814 46.5078 69.4564C48.4328 68.9314 49.3203 69.3564 51.2953 69.9814C52.7483 70.3414 54.2673 70.3414 55.7203 69.9814C55.8707 69.9576 56.0245 69.9689 56.1698 70.0145C56.3151 70.06 56.4479 70.1385 56.5578 70.2439C56.8703 70.4939 55.6703 72.2189 53.5828 72.7439C51.4953 73.2689 46.7703 71.6064 46.0828 71.7564C45.3953 71.9064 45.0953 73.3189 45.3078 73.5314C47.1871 74.1607 49.1649 74.4444 51.1453 74.3689C53.7453 74.2564 55.9328 72.5939 59.4203 72.4939C62.9078 72.3939 64.7828 74.3064 65.6703 74.5689C66.5578 74.8314 67.8578 73.9939 68.8453 73.6814C69.8328 73.3689 72.0828 73.6814 72.3453 73.4314C72.6078 73.1814 70.3078 68.8814 67.3953 68.4939Z" fill="#696A9B"/>
<path d="M64.7832 21.6438C64.9457 21.5438 68.4332 18.2563 68.4332 18.2563C68.4332 18.2563 66.4582 15.7563 68.9582 14.0938C71.4582 12.4313 74.7332 13.9938 76.0332 16.3313C77.3332 18.6688 75.6707 20.8688 74.1582 20.7063C72.6457 20.5438 70.9332 19.3563 70.3082 19.6188C69.6832 19.8813 66.6582 23.2563 66.3957 23.2063C65.8111 22.7364 65.2713 22.2134 64.7832 21.6438Z" fill="#92A0D1"/>
<path d="M30.3066 33.9939C31.1575 34.3774 32.0873 34.5535 33.0195 34.5079C33.9517 34.4623 34.8598 34.1961 35.6691 33.7314C37.0815 32.7093 38.1391 31.2715 38.6941 29.6189C38.8626 29.5561 39.0475 29.5529 39.218 29.6097C39.3886 29.6666 39.5345 29.7801 39.6316 29.9314C39.8941 30.2939 39.1566 32.9439 37.1316 34.4064C36.4621 34.9807 35.6817 35.4114 34.8388 35.6716C33.9958 35.9318 33.1084 36.0159 32.2316 35.9189C30.5691 35.8064 30.2566 35.8064 29.9941 35.4939C29.7316 35.1814 30.0941 33.9939 30.3066 33.9939Z" fill="#1D1D1B"/>
<path d="M28.3317 40.7563C28.5692 40.4063 29.3692 40.7563 29.3192 41.2313C29.0015 42.7098 29.1276 44.2492 29.6817 45.6563C30.5692 47.9938 31.0317 48.0563 30.8317 48.4188C30.6317 48.7813 29.9442 49.1438 29.5817 48.9313C28.7485 47.6693 28.2024 46.2398 27.9817 44.7438C27.6323 43.4142 27.756 42.0046 28.3317 40.7563Z" fill="#1D1D1B"/>
<path d="M41.6582 41.4311C41.9136 40.2803 42.5803 39.2624 43.5332 38.5686C45.2082 37.3186 46.1957 37.2186 46.4582 37.3186C46.7207 37.4186 47.0207 37.9436 46.8207 38.2061C46.6207 38.4686 44.9957 38.4936 43.8957 39.7436C42.7957 40.9936 42.8082 42.0311 42.5457 42.0811C42.2832 42.1311 41.9207 41.5936 41.6582 41.4311Z" fill="#1D1D1B"/>
<path d="M56.2941 33.8312C57.6758 33.8222 59.0118 34.3254 60.0441 35.2437C61.8691 36.8062 62.1316 38.1562 61.9191 38.4187C61.6595 38.6341 61.357 38.7918 61.0316 38.8812C60.8426 37.7382 60.2315 36.7077 59.3191 35.9937C58.3575 35.4827 57.3188 35.1323 56.2441 34.9562C56.0316 34.9312 55.9816 34.0437 56.2941 33.8312Z" fill="#1D1D1B"/>
<path d="M49.1077 44.2435C50.5327 43.656 52.3952 44.8685 52.6452 47.1185C52.8952 49.3685 52.3952 50.8685 50.8827 50.8685C49.3702 50.8685 47.8577 48.881 47.5952 47.631C47.373 46.9797 47.4054 46.2685 47.686 45.6401C47.9665 45.0118 48.4744 44.5128 49.1077 44.2435Z" fill="#1D1D1B"/>
<path d="M49.5694 45.7435C50.3319 45.431 51.3319 46.081 51.4694 47.281C51.6069 48.481 51.3319 49.2685 50.5194 49.2935C49.7069 49.3185 48.9069 48.231 48.7569 47.5685C48.6388 47.2178 48.6567 46.8356 48.8072 46.4975C48.9577 46.1594 49.2298 45.8903 49.5694 45.7435Z" fill="#CBE7F5"/>
<path d="M57.0196 42.0563C58.5071 41.0688 59.9446 42.2188 59.8946 45.4438C59.872 46.5613 59.5384 47.6504 58.9312 48.5888C58.324 49.5273 57.4672 50.2778 56.4571 50.7563C56.194 50.8635 55.9074 50.8999 55.6259 50.8618C55.3444 50.8237 55.0777 50.7125 54.8526 50.5392C54.6275 50.366 54.4517 50.1367 54.3428 49.8743C54.234 49.6119 54.1958 49.3256 54.2321 49.0438C54.2321 47.3188 55.6196 42.9938 57.0196 42.0563Z" fill="#1D1D1B"/>
<path d="M57.8075 43.2061C58.3575 43.0436 59.27 45.0311 58.27 47.1186C57.27 49.2061 56.245 49.4061 55.9825 49.2436C55.72 49.0811 55.8325 47.6311 56.345 45.9686C56.8575 44.3061 57.2825 43.3686 57.8075 43.2061Z" fill="#CBE7F5"/>
<path d="M45.0452 54.5562C45.9827 54.3687 46.6077 55.2437 47.6452 56.3312C48.6827 57.4187 48.6952 58.2062 50.4077 58.3687C52.1202 58.5312 52.8077 58.1562 52.9077 58.5187C53.0077 58.8812 53.1202 59.0937 52.7577 59.3562C52.3952 59.6187 50.1452 60.9187 46.2952 59.4562C42.4452 57.9937 41.8202 55.2437 45.0452 54.5562Z" fill="#1D1D1B"/>
<path d="M66.0327 48.3687C66.3202 48.1937 68.0202 49.4062 67.8577 49.8187C67.6952 50.2312 67.7577 50.3437 67.4452 50.3437C66.651 50.1643 65.9154 49.7857 65.3077 49.2437C65.1452 48.8812 65.6702 48.5687 66.0327 48.3687Z" fill="#1D1D1B"/>
<path d="M63.2707 51.331C63.4457 51.206 66.4582 52.3185 66.4582 52.7935C66.4582 53.2685 66.1957 53.781 65.9332 53.781C64.7756 53.4966 63.6554 53.077 62.5957 52.531C62.7255 52.0844 62.9565 51.6738 63.2707 51.331Z" fill="#1D1D1B"/>
<path d="M62.1328 54.5562C62.5953 54.4812 65.8828 56.5437 65.8828 56.8562C65.8828 57.1687 65.7703 57.4312 65.5078 57.4312C65.2453 57.4312 61.4453 55.8687 61.4453 55.4437C61.4627 55.2454 61.5368 55.0563 61.6587 54.8989C61.7806 54.7416 61.9452 54.6226 62.1328 54.5562Z" fill="#1D1D1B"/>
<path d="M60.3068 57.4812C60.6443 57.1437 64.5193 59.6687 64.5193 59.9812C64.5193 60.2937 64.3693 60.5562 64.1068 60.5562C62.6276 60.0024 61.2147 59.2855 59.8943 58.4187C59.7818 58.1062 60.1443 57.6312 60.3068 57.4812Z" fill="#1D1D1B"/>
<path d="M58.6957 60.0813C58.9957 59.9813 63.3332 62.7438 63.2707 63.1563C63.2546 63.2792 63.2143 63.3978 63.1521 63.5051C63.0899 63.6124 63.007 63.7062 62.9082 63.7813C61.1877 63.0987 59.517 62.2967 57.9082 61.3813C58.0246 60.8747 58.3007 60.419 58.6957 60.0813Z" fill="#1D1D1B"/>
<path d="M56.9702 63.4937C56.9702 63.4937 61.8202 66.0937 61.7077 66.3562C61.5952 66.6187 61.7077 66.8312 61.2952 66.8312C60.8827 66.8312 56.6077 65.4187 56.4577 65.0062C56.3077 64.5937 56.6577 63.4937 56.9702 63.4937Z" fill="#1D1D1B"/>
<path d="M55.7711 66.3814C56.1336 66.2689 58.4836 67.7939 58.3336 68.1564C58.1836 68.5189 58.2211 68.6814 57.9586 68.5689C56.9342 68.2457 55.9424 67.8272 54.9961 67.3189C55.1733 66.9474 55.4395 66.6253 55.7711 66.3814Z" fill="#1D1D1B"/>
<path d="M32.5702 29.2936C29.3327 26.9811 20.5202 20.2936 20.5702 20.0311C20.6202 19.7686 22.3327 18.8811 21.7077 17.5311C21.0827 16.1811 19.0577 15.9936 17.5952 16.3311C14.6327 17.0561 13.6452 20.2936 15.0952 21.3311C16.5452 22.3686 18.0702 21.1186 18.5327 21.1811C18.9952 21.2436 28.2577 29.1811 30.6077 31.2936L32.5702 29.2936Z" fill="#92A0D1"/>
</svg>
