<svg width="74" height="70" viewBox="0 0 74 70" fill="none" xmlns="http://www.w3.org/2000/svg">
<path d="M17.7854 12.1443C21.5944 8.25608 26.364 5.44435 31.6104 3.99434C39.8104 1.95684 46.3729 2.74434 50.8229 5.55684C55.2729 8.36934 56.6104 11.0193 56.6104 11.0193L59.5479 8.83184C59.5479 8.83184 56.6604 1.95684 62.7604 0.319344C68.8603 -1.31816 70.0228 3.68185 69.7853 7.58184C69.5478 11.4818 66.8479 12.2693 65.7979 12.4318C64.6558 12.4182 63.5223 12.2328 62.4354 11.8818L59.0854 16.8818C60.2326 19.3134 60.8625 21.9567 60.9354 24.6443C61.0628 26.9695 61.0168 29.301 60.7979 31.6193C60.7979 31.6193 65.2853 33.4943 65.4353 33.4943C65.5853 33.4943 69.0854 32.2443 70.3354 33.2818C71.5854 34.3193 71.2228 35.2693 71.2228 35.2693C71.2228 35.2693 73.7229 35.2693 73.1479 37.4568C73.0491 38.0317 72.8056 38.572 72.4404 39.0269C72.0753 39.4817 71.6003 39.8362 71.0603 40.0568C71.3949 40.2329 71.6475 40.5327 71.7643 40.8923C71.881 41.2519 71.8527 41.6428 71.6853 41.9818C71.2882 42.6699 70.6561 43.1915 69.9052 43.451C69.1544 43.7105 68.3351 43.6903 67.5978 43.3943C66.2345 42.4127 65.2153 41.0261 64.6854 39.4318C64.5018 38.8036 64.3804 38.1588 64.3228 37.5068L60.3604 36.2568C60.3604 36.2568 57.1353 47.0318 55.7228 51.4568C54.3103 55.8818 53.4854 58.7568 53.4854 58.7568C53.4854 58.7568 58.3229 58.7568 58.8979 61.1443C59.4729 63.5318 59.4229 67.2943 58.8979 67.6568C58.3729 68.0193 52.6479 68.4943 48.3854 68.4943C44.1229 68.4943 42.7104 67.5068 42.7604 66.8318C42.8104 66.1568 42.7604 57.3943 42.4479 57.2443C40.7876 57.0381 39.1081 57.0381 37.4479 57.2443C35.3604 57.4443 33.8479 58.0193 33.7979 58.4943C33.7479 58.9693 34.1104 67.6068 33.7979 68.1818C33.4854 68.7568 25.9854 69.3693 21.0854 69.4318C16.1854 69.4943 15.3604 69.4318 15.3604 68.9068C15.3604 68.3818 14.5229 62.6568 16.1479 61.7693C18.0454 61.1057 20.0195 60.6857 22.0229 60.5193C22.0229 60.5193 18.4354 50.7318 16.6604 45.8318C14.8854 40.9318 13.6979 37.1818 13.6979 37.1818L9.63536 38.3943C9.63536 38.3943 9.99786 40.4193 9.01036 41.1568C8.02286 41.8943 6.19786 42.4068 5.26036 41.1568C5.00107 40.7798 4.8285 40.3499 4.75502 39.8982C4.68154 39.4465 4.70897 38.9842 4.83536 38.5443C4.31799 38.2326 3.89192 37.7899 3.60006 37.2611C3.3082 36.7322 3.16085 36.1358 3.17286 35.5318C3.43536 33.7068 4.16036 33.0318 4.58536 32.8193C4.93975 32.7256 5.30732 32.6918 5.67286 32.7193C5.67286 32.7193 6.76036 30.6818 8.29786 31.0943C8.71074 31.1665 9.09023 31.3674 9.38208 31.6682C9.67394 31.9691 9.86321 32.3545 9.92286 32.7693L12.7354 31.7193C12.0496 28.8487 11.9942 25.8635 12.5729 22.9693C12.9635 20.577 13.9476 18.3207 15.4354 16.4068L9.92286 10.6318C9.18215 11.1574 8.344 11.5298 7.45753 11.7273C6.57106 11.9247 5.65409 11.9433 4.76036 11.7818C2.04786 11.0943 -0.452143 8.39434 1.71036 4.28184C3.87286 0.169344 10.7979 -0.205656 12.4979 2.14434C14.1979 4.49434 12.4979 7.55684 12.4979 7.55684L17.7854 12.1443Z" fill="#1D1D1B"/>
<path d="M7.44832 33.8571L6.76082 32.7696C6.76082 32.7696 7.02332 31.5196 8.07332 31.9821C9.12332 32.4446 9.32332 33.9696 9.47332 33.9071C9.62332 33.8446 12.5983 32.7196 12.7608 33.0321C12.9233 33.3446 13.4358 36.0446 13.4358 36.0446C13.4358 36.0446 8.43582 37.2946 8.43582 37.6071C8.43582 37.9196 8.84832 39.6446 8.17332 40.2196C7.49832 40.7946 6.51082 40.8446 6.29832 40.4196C6.08582 39.9946 5.93582 38.9696 6.29832 38.9071C6.66082 38.8446 7.02332 38.6571 7.02332 38.4946C7.02332 38.3321 6.92332 37.6071 6.92332 37.6071C6.92332 37.6071 5.67332 38.0321 5.04832 37.3446C4.42332 36.6571 3.89832 34.7446 4.54832 34.2821C4.82151 34.0738 5.15068 33.9518 5.49364 33.9317C5.8366 33.9117 6.17773 33.9945 6.47332 34.1696C6.71082 34.4821 7.44832 33.8571 7.44832 33.8571Z" fill="#BF7DD6"/>
<path d="M12.2373 33.9072C12.3373 34.0697 12.5998 34.7947 12.3373 34.9572C12.0191 35.0632 11.6851 35.114 11.3498 35.1072C11.3498 35.1072 10.8873 34.4322 11.0873 34.2822C11.4553 34.1145 11.8411 33.9887 12.2373 33.9072Z" fill="#1D1D1B"/>
<path d="M7.64926 2.14453C9.81176 1.74453 11.6618 2.65703 11.9743 4.64453C12.2868 6.63203 9.68676 9.64453 7.91176 10.3695C6.13676 11.0945 3.74927 10.9445 2.76177 9.43203C1.77426 7.91953 1.44926 3.28203 7.64926 2.14453Z" fill="#AD69E1"/>
<path d="M12.0498 8.65723C13.8311 10.1108 15.5024 11.6943 17.0498 13.3947C16.8197 13.9761 16.5037 14.5196 16.1123 15.0072C16.1123 15.0072 10.7998 10.4197 10.9873 10.1572C11.1748 9.89473 12.0498 8.65723 12.0498 8.65723Z" fill="#BF7DD6"/>
<path d="M63.1746 1.83187C64.9371 1.25687 67.9621 1.56937 68.6371 5.68187C69.3121 9.79437 66.7621 11.3569 64.2121 10.8444C63.1088 10.6452 62.1231 10.0323 61.4563 9.13096C60.7896 8.22959 60.4921 7.10769 60.6246 5.99437C60.7246 3.70687 61.7121 2.29437 63.1746 1.83187Z" fill="#AD69E1"/>
<path d="M60.1992 9.84473C60.3617 10.0572 61.7117 11.0947 61.5617 11.3072C61.4117 11.5197 58.6992 15.0572 58.6992 15.0572C58.2264 14.1628 57.809 13.2403 57.4492 12.2947C57.4992 12.1447 60.1992 9.84473 60.1992 9.84473Z" fill="#BF7DD6"/>
<path d="M28.6358 6.78217C31.6858 5.38217 39.4733 4.38217 44.8858 5.21967C50.2983 6.05717 55.7983 12.5572 57.0483 17.1447C57.848 20.2555 58.408 23.4232 58.7233 26.6197C58.7233 26.6197 54.1858 23.9197 53.9733 24.1197C53.7608 24.3197 53.7233 25.0572 53.8733 25.1697C54.0233 25.2822 58.6108 27.2447 58.7233 27.6697C58.8358 28.0947 58.7233 30.8947 58.7233 30.8947C57.2508 30.148 55.7356 29.4885 54.1858 28.9197C54.0858 29.0697 53.6108 29.6947 54.1858 29.8572C55.6978 30.5624 57.145 31.3989 58.5108 32.3572C58.5108 32.5572 58.0983 35.7322 58.0983 35.7322C58.0983 35.7322 54.6608 33.8072 54.4983 33.8572C54.3358 33.9072 54.1358 34.5947 54.3483 34.6447C54.5608 34.6947 57.9358 36.7322 57.8858 37.0447C57.8358 37.3572 53.2983 51.8322 53.1233 51.8822C52.1984 51.5496 51.2928 51.1656 50.4108 50.7322C50.4108 50.7322 49.9983 51.4697 50.1983 51.5697C50.3983 51.6697 52.8608 52.6572 52.6983 52.9197C52.5358 53.1822 52.2233 54.1697 52.2233 54.1697C51.2991 53.6252 50.3235 53.173 49.3108 52.8197C49.1483 52.9697 48.8858 53.3447 49.1483 53.5447C50.1388 53.9462 51.1069 54.401 52.0483 54.9072C52.0483 55.1072 52.0483 55.9447 51.8983 55.9447C50.8758 55.4474 49.8238 55.0133 48.7483 54.6447C48.4858 54.7447 48.1733 55.2697 48.4858 55.4697C48.7983 55.6697 51.5608 56.8322 51.5108 57.1447C51.3851 57.5206 51.2261 57.8845 51.0358 58.2322C50.1299 57.6412 49.1909 57.1028 48.2233 56.6197C48.0733 56.6197 47.8608 57.3947 48.0108 57.5072C48.8898 57.9702 49.7264 58.5098 50.5108 59.1197C50.5108 59.2697 47.1858 59.4822 47.1358 59.8947C47.0421 60.2723 47.0421 60.6671 47.1358 61.0447C47.2358 61.2572 50.8858 61.0447 53.1733 61.3572C55.4608 61.6697 56.4608 61.6197 56.5608 62.1947C56.6608 62.7697 56.9233 66.3072 56.5608 66.4072C56.1983 66.5072 49.4233 66.4072 47.7108 66.3072C45.9983 66.2072 45.0483 65.8947 45.0483 65.5822C45.0483 65.2697 44.9483 55.8947 44.6858 55.5822C44.4233 55.2697 40.6233 54.7947 37.5483 54.9572C35.634 55.0656 33.7506 55.4879 31.9733 56.2072C31.4795 55.7185 30.9395 55.2789 30.3608 54.8947C30.1483 54.8947 29.6358 55.2697 29.7858 55.5197C29.9358 55.7697 31.3483 56.9322 31.3483 57.0822C31.3282 57.2924 31.2948 57.5012 31.2483 57.7072C30.0683 56.8209 28.8136 56.0388 27.4983 55.3697C27.2858 55.5197 27.0358 56.1447 27.2858 56.3072C28.6533 57.1898 29.9604 58.1628 31.1983 59.2197C31.1983 59.4822 31.2983 60.7322 31.2983 60.7322C31.2983 60.7322 28.0233 58.5447 27.8108 58.8572C27.5983 59.1697 27.5483 59.8447 27.7108 59.9572C27.8733 60.0697 31.1983 61.5197 31.2483 61.8822C31.379 63.4419 31.379 65.0099 31.2483 66.5697C31.0483 66.8322 17.9733 67.8197 17.8108 67.2947C17.6483 66.7697 17.6608 62.9197 18.0233 62.6572C18.3858 62.3947 26.0983 61.4072 26.1983 61.1447C26.2983 60.8822 26.2983 60.2072 26.0483 60.1572C25.7983 60.1072 24.3233 60.1572 24.2733 60.0572C24.2233 59.9572 17.3483 42.3947 15.8358 36.0447C14.3233 29.6947 13.7483 21.2572 18.2983 15.2697C22.8483 9.28217 24.8858 8.49467 28.6358 6.78217Z" fill="#A461AA"/>
<path d="M38.6981 9.16963C39.1106 9.16963 39.1106 10.4196 38.9481 10.4196C35.9391 10.2632 32.9606 11.0879 30.4606 12.7696C26.2481 15.6821 25.7731 16.7321 25.4606 16.6196C25.1481 16.5071 24.5856 16.3071 24.6856 16.0446C26.3243 13.895 28.4364 12.1521 30.8579 10.9511C33.2794 9.75007 35.9451 9.12337 38.6481 9.11963L38.6981 9.16963Z" fill="#1D1D1B"/>
<path d="M51.9241 13.2822C52.9397 13.5536 53.8718 14.0734 54.6365 14.7947C54.6365 15.0572 54.6365 15.5322 54.374 15.3697C53.5129 15.0111 52.6776 14.5934 51.874 14.1197C51.7615 13.9072 51.6616 13.4947 51.9241 13.2822Z" fill="#1D1D1B"/>
<path d="M52.761 16.7822C52.761 16.7822 56.2485 18.1822 56.511 18.9072C56.7735 19.6322 56.9235 19.7947 56.611 19.7447C55.2308 19.2129 53.904 18.5516 52.6485 17.7697C52.5985 17.5072 52.5985 16.8822 52.761 16.7822Z" fill="#1D1D1B"/>
<path d="M53.3852 20.6821C54.7311 21.2756 56.0198 21.9911 57.2352 22.8196C57.3352 23.1821 57.6977 23.7071 57.2352 23.4946C55.859 22.9368 54.5189 22.2939 53.2227 21.5696C53.2422 21.2685 53.2967 20.9707 53.3852 20.6821Z" fill="#1D1D1B"/>
<path d="M61.0363 32.8696C61.2488 32.9696 65.5113 34.7946 65.6738 34.8446C65.8363 34.8946 68.1738 33.7571 69.4238 34.1196C70.6738 34.4821 70.3613 35.1571 70.2488 35.4696C70.1363 35.7821 69.7863 36.4071 70.0488 36.6196C70.3113 36.8321 70.3113 36.9821 70.4613 36.9821C70.6113 36.9821 71.1363 36.2071 71.5613 36.4696C71.8183 36.7161 71.9757 37.0485 72.0033 37.4035C72.031 37.7585 71.9271 38.1113 71.7113 38.3946C71.1544 39.019 70.4843 39.5322 69.7363 39.9071C69.5238 39.9071 69.4238 40.5321 69.6363 40.6821C69.8488 40.8321 70.9863 41.2071 70.7238 41.6696C70.585 41.9305 70.3895 42.1569 70.1515 42.3321C69.9136 42.5073 69.6394 42.6269 69.3491 42.6821C69.0588 42.7373 68.7599 42.7266 68.4743 42.6509C68.1886 42.5752 67.9237 42.4364 67.6988 42.2446C66.1988 40.9946 65.7238 37.6571 65.6738 37.4071C65.5515 36.9829 65.3383 36.5905 65.0488 36.2571C63.5673 35.8613 62.1071 35.3899 60.6738 34.8446C60.6738 34.6446 61.0363 32.8696 61.0363 32.8696Z" fill="#BF7DD6"/>
<path d="M37.761 43.4946C37.961 43.4946 42.336 44.0196 45.511 42.4571C48.686 40.8946 50.6235 38.3946 51.036 38.4946C51.4485 38.5946 52.0235 39.2196 51.9235 39.4321C50.5987 41.7416 48.5711 43.5678 46.136 44.6446C42.186 46.4071 38.2735 46.5696 37.961 46.2571C37.6485 45.9446 37.236 43.5946 37.761 43.4946Z" fill="#1D1D1B"/>
<path d="M35.4118 17.3447C40.0493 16.3197 46.7618 17.6072 49.3743 23.1322C51.9868 28.6572 51.2993 36.0447 45.2618 39.4822C39.2243 42.9197 31.1368 42.8197 27.3868 39.2197C23.6368 35.6197 20.9368 20.5822 35.4118 17.3447Z" fill="#1D1D1B"/>
<path d="M35.7111 19.0069C39.7111 18.1194 45.5111 19.2319 47.7611 24.0069C50.0111 28.7819 49.4236 35.1569 44.2111 38.1194C38.9986 41.0819 32.0486 40.9944 28.7861 37.8944C25.5236 34.7944 23.2111 21.7944 35.7111 19.0069Z" fill="#E6E4DA"/>
<path d="M36.3732 25.8946C37.2089 25.7263 38.0769 25.8478 38.8343 26.239C39.5916 26.6302 40.1931 27.2678 40.5396 28.0466C40.886 28.8254 40.9568 29.6991 40.7403 30.5235C40.5237 31.348 40.0327 32.074 39.3482 32.5821C37.5232 33.6196 35.0857 33.5946 33.9482 32.5071C33.4972 31.957 33.1975 31.2987 33.0788 30.5974C32.9601 29.896 33.0265 29.1758 33.2714 28.5079C33.5163 27.8401 33.9313 27.2477 34.4753 26.7894C35.0193 26.331 35.6735 26.0226 36.3732 25.8946Z" fill="#1D1D1B"/>
<path d="M37.3367 27.1444C37.6889 27.05 38.0602 27.0536 38.4106 27.155C38.7609 27.2563 39.0768 27.4515 39.3242 27.7194C39.8367 28.3444 38.0742 29.7944 37.8617 29.6944C37.6492 29.5944 36.3992 27.6569 37.3367 27.1444Z" fill="#E6E4DA"/>
</svg>
