<svg width="68" height="66" viewBox="0 0 68 66" fill="none" xmlns="http://www.w3.org/2000/svg">
<path d="M22.7653 19.7124C20.8927 18.4005 19.1172 16.9551 17.4528 15.3874C16.6153 14.2874 14.2153 11.4749 13.9528 11.8499C13.6903 12.2249 11.7153 15.5999 11.2528 15.5999C9.38208 14.382 7.59094 13.0459 5.8903 11.5999C4.97507 11.8846 3.99 11.8476 3.09868 11.4952C2.20735 11.1427 1.46338 10.496 0.990301 9.66243C-1.0472 6.64993 2.7653 3.52493 5.9903 3.93743C9.2153 4.34993 8.0778 8.31243 8.0778 8.31243C8.0778 8.31243 9.4278 9.29993 9.5278 9.14993C9.6278 8.99993 11.7153 5.66243 13.0778 5.76243C14.4403 5.86243 17.2403 9.03743 17.2403 9.03743C17.2403 9.03743 19.9028 8.72493 21.1528 9.97493C22.4028 11.2249 22.1903 13.0999 22.7153 13.1624C23.2403 13.2249 25.4653 13.8374 25.4653 13.8374C25.4653 13.8374 27.6528 6.64993 32.9653 5.86243C38.2778 5.07493 46.9778 14.9749 46.9778 14.9749C46.9778 14.9749 49.9028 8.93743 50.7278 8.72493C51.5528 8.51243 55.5778 11.2249 55.7278 11.0749C55.8778 10.9249 59.6403 6.58743 59.6403 6.58743C59.3328 6.25653 59.0949 5.86726 58.9406 5.4427C58.7863 5.01814 58.7188 4.56693 58.7421 4.1158C58.7654 3.66468 58.8791 3.22283 59.0763 2.81644C59.2735 2.41004 59.5503 2.04738 59.8903 1.74993C60.4038 1.14389 61.0783 0.695403 61.8358 0.456225C62.5933 0.217047 63.403 0.196928 64.1714 0.398187C64.9399 0.599446 65.6357 1.01388 66.1787 1.59367C66.7218 2.17346 67.0898 2.89496 67.2403 3.67493C68.2278 7.32493 62.8153 8.31243 62.8153 8.31243C62.8153 8.31243 57.5528 15.9124 56.9278 16.0749C56.3028 16.2374 52.8653 14.6124 52.7653 14.8249C52.6653 15.0374 50.9403 19.6624 50.9403 19.6624C54.201 23.7072 56.2083 28.6168 56.7153 33.7874C57.3403 42.0124 56.7153 47.0124 51.5153 49.5124C48.4791 51.0877 45.2074 52.16 41.8278 52.6874C40.5778 52.8499 38.6403 52.9999 38.6403 52.9999L39.1153 55.2374L43.0778 55.8124C43.2232 55.3026 43.5402 54.8587 43.9753 54.5557C44.4104 54.2528 44.9367 54.1094 45.4653 54.1499C47.3903 54.2499 47.1403 56.7499 46.3903 57.4124C46.0866 57.6438 45.7202 57.7783 45.3389 57.7983C44.9576 57.8184 44.5791 57.7231 44.2528 57.5249C43.8903 57.2624 43.4778 56.8999 43.4778 56.8999H39.9903C40.0696 58.0277 40.0696 59.1597 39.9903 60.2874L39.8278 60.7499L39.9403 61.9999C39.9403 61.9999 43.2153 62.2124 43.2153 63.0499C43.2153 63.8874 42.1778 65.1749 41.6028 65.1249C40.7193 64.9961 39.8698 64.6945 39.1028 64.2374C39.0028 63.9874 38.7403 61.0124 38.7403 61.0124H37.9028C38.0619 62.1341 38.1163 63.2682 38.0653 64.3999C37.8528 64.6124 34.8778 66.1249 34.3153 65.6499C33.7528 65.1749 33.1653 63.1499 33.6403 62.9874C34.1153 62.8249 37.0153 62.5749 37.0153 62.4249C37.0153 62.2749 37.0778 61.1749 37.0778 61.1749C37.0778 61.1749 35.9278 60.4999 35.9278 59.6749C35.9278 58.8499 35.8278 57.6374 35.8278 57.6374C35.5368 57.6548 35.2561 57.7513 35.016 57.9165C34.7759 58.0817 34.5855 58.3094 34.4653 58.5749C34.2151 58.9775 33.9897 59.395 33.7903 59.8249C33.7903 59.8249 34.4153 61.9124 32.9528 62.3249C31.4903 62.7374 29.8278 60.8624 30.5653 59.4624C31.3028 58.0624 32.9028 58.9874 32.9028 58.9874C33.5367 58.0116 34.2882 57.1174 35.1403 56.3249C35.475 56.1138 35.8214 55.9219 36.1778 55.7499L36.4403 53.2499C36.4403 53.2499 29.7278 54.1374 25.0903 52.3124C20.4528 50.4874 16.7028 47.5749 16.9653 40.5374C17.2278 33.4999 22.7653 19.7124 22.7653 19.7124Z" fill="#1D1D1B"/>
<path d="M31.978 59.6C32.353 59.325 33.0155 60.75 32.603 61.0625C32.1905 61.375 30.9905 60.3375 31.978 59.6Z" fill="#A42116"/>
<path d="M44.8903 54.9751C45.6653 54.9751 46.1403 55.1751 46.1403 55.8501C46.1403 56.5251 45.2028 56.7876 44.8903 56.5376C44.5778 56.2876 44.4778 54.9751 44.8903 54.9751Z" fill="#A42116"/>
<path d="M37.5534 54.4C37.8159 54 39.3784 58.925 39.0159 59.4C38.7498 59.5963 38.439 59.7231 38.1116 59.7689C37.7842 59.8147 37.4506 59.7782 37.1409 59.6625C37.0705 57.8982 37.2089 56.1318 37.5534 54.4Z" fill="#E7413E"/>
<path d="M4.11623 5.75024C5.45373 5.75024 6.76623 5.65024 6.97873 7.26274C7.19123 8.87524 6.14123 9.76274 4.32873 10.0252C4.02637 10.0457 3.72323 9.99929 3.44085 9.8893C3.15847 9.7793 2.9038 9.60844 2.69495 9.38885C2.48611 9.16926 2.32821 8.90635 2.23251 8.61881C2.1368 8.33128 2.10564 8.02619 2.14122 7.72524C2.24122 7.16274 2.81623 5.80024 4.11623 5.75024Z" fill="#F2910D"/>
<path d="M8.17734 10.0751C8.40234 10.0751 9.68984 11.3251 10.1023 10.9626C10.5148 10.6001 13.4398 7.10011 13.6398 7.21261C13.8398 7.32511 16.8773 10.9626 17.3898 10.8001C17.9023 10.6376 18.9023 10.0251 19.5273 10.3376C20.1523 10.6501 20.9898 11.1126 21.0898 11.6876C21.1898 12.2626 21.2523 14.6001 22.0273 14.7626C22.8023 14.9251 24.7898 15.0251 24.7398 15.2876C24.6898 15.5501 23.3273 18.3001 23.3273 18.3001C21.3857 17.6163 19.7332 16.2943 18.6398 14.5501C16.6648 11.5876 15.5148 10.4376 14.6898 10.0751C13.8648 9.71261 13.5398 9.55011 13.2273 9.86261C12.9148 10.1751 11.6648 13.1001 10.9398 13.2001C10.2148 13.3001 7.33984 11.0126 7.33984 10.7001C7.33984 10.3876 7.86484 10.1251 8.17734 10.0751Z" fill="#FAB900"/>
<path d="M48.0156 15.6501C48.0156 15.6501 50.6281 9.71259 51.3031 10.0751C51.9781 10.4376 55.0531 12.7876 55.5781 12.5751C56.1031 12.3626 60.4656 7.21259 60.7281 7.36259C60.9906 7.51259 61.3531 7.57509 61.2031 7.78759C61.0531 8.00009 56.6156 14.5501 56.3906 14.5001C56.1656 14.4501 52.6406 12.6251 52.3406 13.0001C52.0406 13.3751 50.0531 18.5251 49.8406 18.2126C49.6281 17.9001 48.0156 15.6501 48.0156 15.6501Z" fill="#FAB900"/>
<path d="M62.2915 1.85004C65.2665 1.06254 66.304 3.56254 65.679 5.07504C65.4677 5.50673 65.1507 5.87799 64.7575 6.15428C64.3642 6.43058 63.9075 6.60293 63.4297 6.65532C62.952 6.70771 62.4687 6.63843 62.025 6.45393C61.5812 6.26943 61.1912 5.97569 60.8915 5.60004C59.329 3.66254 61.6415 2.01254 62.2915 1.85004Z" fill="#F2910D"/>
<path d="M33.0776 7.88742C35.4401 7.09992 41.5651 11.1624 47.7026 19.1374C53.8401 27.1124 54.5276 37.4124 54.3276 37.3624C54.1276 37.3124 52.0276 35.8499 51.8276 35.8999C51.6276 35.9499 51.3526 36.5874 51.5151 36.7374C51.6776 36.8874 54.1651 38.2499 54.2151 38.6124C54.2651 38.9749 54.1151 40.0249 54.1151 40.3874C54.1128 40.6159 54.0792 40.8431 54.0151 41.0624C52.9723 40.3668 51.8725 39.7605 50.7276 39.2499C50.5776 39.4124 50.0526 40.1874 50.3151 40.2999C51.5501 40.8819 52.7192 41.5943 53.8026 42.4249C53.6642 42.9394 53.4537 43.4318 53.1776 43.8874L52.9651 44.1499L49.4276 41.6499C49.4276 41.6499 48.3276 42.1749 48.8026 42.5874C49.2776 42.9999 52.5526 45.0874 52.3401 45.4499C52.1276 45.8124 51.2026 46.7499 51.2026 46.7499C50.089 45.816 48.8971 44.9796 47.6401 44.2499C47.2776 44.2499 46.8151 44.7249 47.0151 44.9249C47.2151 45.1249 50.3526 47.5374 50.1401 47.6874C49.9276 47.8374 48.7901 48.4749 48.7901 48.4749C48.7901 48.4749 46.1901 46.5374 45.9776 46.4874C45.7651 46.4374 45.3026 46.7499 45.3026 46.9624C45.3026 47.1749 47.9526 48.9374 47.8026 49.0374C47.0105 49.4163 46.1689 49.6814 45.3026 49.8249C45.1401 49.5999 43.6401 47.9999 43.0776 47.9999C42.5151 47.9999 42.2401 48.3124 42.4526 48.5249C42.6651 48.7374 44.3776 49.9874 44.1651 50.1374C43.9526 50.2874 35.0026 51.9124 29.9526 51.0249C24.9026 50.1374 21.7151 48.8749 20.1401 44.4499C18.5651 40.0249 21.0276 30.5999 23.7401 23.7749C26.4526 16.9499 29.1651 9.24992 33.0776 7.88742Z" fill="#E7413E"/>
<path d="M23.4409 42.8376C23.7409 42.6251 24.6909 43.1001 24.3284 43.4126C23.9659 43.7251 23.3909 44.0876 23.2284 44.6626C23.0659 45.2376 22.9659 45.4876 22.7034 45.4376C22.6285 45.4241 22.557 45.3959 22.4931 45.3545C22.4292 45.3132 22.3742 45.2596 22.3311 45.1968C22.2881 45.134 22.258 45.0633 22.2425 44.9887C22.227 44.9142 22.2265 44.8374 22.2409 44.7626C22.4326 44.0125 22.8518 43.34 23.4409 42.8376Z" fill="#1D1D1B"/>
<path d="M25.9909 44.8125C26.4159 44.8125 26.9784 46.475 28.7034 46.85C30.4284 47.225 32.4534 47.4125 32.7034 47.9875C32.7414 48.1592 32.7426 48.3369 32.7072 48.5091C32.6718 48.6813 32.6004 48.8441 32.4978 48.9868C32.3951 49.1296 32.2635 49.249 32.1116 49.3375C31.9596 49.4259 31.7907 49.4813 31.6159 49.5C29.7819 49.2297 28.0358 48.5365 26.5159 47.475C25.2659 46.375 24.9534 44.8125 25.9909 44.8125Z" fill="#1D1D1B"/>
<path d="M29.9532 16.85C29.8782 16.7 30.0532 16.0125 30.8907 13.975C31.7282 11.9375 33.1782 11.475 33.4907 11.7875C33.8032 12.1 33.9032 12.4125 33.7032 12.625C32.7183 13.0937 31.9399 13.9077 31.5157 14.9125C30.9907 16.475 31.0907 16.6875 30.8282 16.9C30.5657 17.1125 30.1407 17.1625 29.9532 16.85Z" fill="#1D1D1B"/>
<path d="M28.0783 23.5124C28.0033 23.1874 29.9533 21.5374 33.3908 20.4374C36.8283 19.3374 39.4283 19.5499 39.4783 20.0749C39.4866 20.5295 39.4362 20.9833 39.3283 21.4249C37.3137 21.0542 35.2357 21.2534 33.3283 21.9999C30.4658 23.2499 29.0158 24.3999 28.7533 24.3999C28.4908 24.3999 28.1283 23.7749 28.0783 23.5124Z" fill="#1D1D1B"/>
<path d="M35.3162 24.2499C40.6287 22.8749 46.8787 26.7499 47.8162 31.3874C48.7537 36.0249 46.8162 42.4749 39.2162 43.4749C31.6162 44.4749 27.6037 41.4874 26.7162 36.5374C25.8287 31.5874 27.6412 26.1624 35.3162 24.2499Z" fill="#1D1D1B"/>
<path d="M35.6534 25.8623C40.0409 24.7248 45.1909 27.9248 45.9284 31.7498C46.6659 35.5748 45.1409 40.9123 38.8909 41.7498C32.6409 42.5873 29.3034 40.1123 28.6159 36.0248C27.9284 31.9373 29.3284 27.4873 35.6534 25.8623Z" fill="#E6E4DA"/>
<path d="M36.1773 28.4626C39.1148 27.7001 42.5773 29.8376 43.0648 32.4126C43.2538 33.1687 43.2769 33.9567 43.1326 34.7226C42.9882 35.4884 42.6798 36.2139 42.2285 36.8493C41.7772 37.4847 41.1937 38.0148 40.5182 38.4034C39.8426 38.7919 39.0909 39.0296 38.3148 39.1001C34.1023 39.6501 31.8773 38.0001 31.4148 35.2626C30.9523 32.5251 31.9398 29.5501 36.1773 28.4626Z" fill="#1D1D1B"/>
<path d="M37.5035 30.2249C38.091 29.9374 40.516 31.6374 40.1535 32.2124C39.791 32.7874 37.341 32.9374 37.0785 32.6749C36.816 32.4124 36.766 30.5999 37.5035 30.2249Z" fill="#E6E4DA"/>
</svg>
