<svg width="90" height="90" viewBox="0 0 90 90" fill="none" xmlns="http://www.w3.org/2000/svg">
<circle cx="45" cy="45" r="45" fill="black"/>
<path d="M43.4316 49.2183C43.4316 49.2183 35.5191 49.6308 31.2941 45.4683C27.0691 41.3058 26.9816 38.2308 26.9816 38.2308C26.9816 38.2308 23.6441 38.3308 22.2941 37.1808C20.9441 36.0308 20.6691 33.1183 22.7066 31.1933C24.7441 29.2683 25.7316 29.4308 25.7316 29.4308C25.9378 27.8525 26.3021 26.2988 26.8191 24.7933C27.1528 23.8672 27.6067 22.9888 28.1691 22.1808L22.4941 19.0558C22.0643 19.5167 21.4945 19.8228 20.8729 19.9268C20.2514 20.0307 19.613 19.9267 19.0566 19.6308C18.5282 19.3772 18.0691 18.9993 17.7188 18.5294C17.3684 18.0594 17.1373 17.5116 17.0451 16.9327C16.9529 16.3539 17.0025 15.7613 17.1895 15.2058C17.3766 14.6504 17.6956 14.1485 18.1191 13.7433C18.9044 13.0925 19.8733 12.7029 20.8906 12.629C21.9079 12.555 22.9229 12.8004 23.7941 13.3308C25.0441 14.2183 24.4191 15.9933 24.4191 15.9933L30.8316 18.9058C33.982 15.8768 38.128 14.0993 42.4941 13.9058C47.4257 13.6297 52.3156 14.9442 56.4441 17.6558C57.4218 18.577 58.2938 19.6041 59.0441 20.7183L65.9691 16.0933C65.8796 15.6786 65.8735 15.2503 65.9511 14.8332C66.0288 14.4161 66.1885 14.0186 66.4212 13.6638C66.6538 13.3091 66.9547 13.0041 67.3062 12.7667C67.6578 12.5292 68.0531 12.3641 68.4691 12.2808C69.0006 12.0627 69.5752 11.9696 70.1484 12.0087C70.7216 12.0479 71.2782 12.2182 71.7751 12.5066C72.2721 12.7949 72.6961 13.1937 73.0145 13.6719C73.3329 14.1502 73.5371 14.6952 73.6114 15.265C73.6858 15.8347 73.6282 16.4139 73.4431 16.9578C73.258 17.5018 72.9505 17.9959 72.5441 18.4021C72.1378 18.8083 71.6435 19.1157 71.0995 19.3006C70.5555 19.4855 69.9763 19.5428 69.4066 19.4683C68.966 19.3629 68.5444 19.19 68.1566 18.9558L61.4941 24.4183C61.8879 25.1667 62.2022 25.9544 62.4316 26.7683C62.5316 27.4933 62.5816 28.2808 62.5816 28.2808C62.5816 28.2808 67.2191 28.0183 67.0566 32.3933C66.8941 36.7683 61.9066 37.3933 61.9066 37.3933C61.583 39.0224 60.9192 40.5649 59.9585 41.9197C58.9978 43.2746 57.7619 44.4114 56.3316 45.2558C53.4092 47.111 50.1227 48.3174 46.6941 48.7933L47.1191 53.3308C48.4779 53.7139 49.6344 54.6104 50.3441 55.8308C51.3816 57.7558 52.6816 59.9933 53.2066 59.9933C53.7316 59.9933 55.7066 58.2808 56.4316 57.7058C56.8723 57.4008 57.2465 57.0096 57.5316 56.5558C57.5316 56.5558 55.2441 53.1683 58.3691 51.7183C61.4941 50.2683 63.3316 52.6558 62.4441 55.1558C61.5566 57.6558 58.2816 57.3433 58.2816 57.3433C58.2816 57.3433 54.1691 61.4058 53.4316 61.4058C53.0339 61.4096 52.6395 61.333 52.2722 61.1804C51.9048 61.0279 51.5722 60.8027 51.2941 60.5183C50.4092 58.7346 49.4026 57.0139 48.2816 55.3683C47.7066 54.8933 47.2941 55.0558 47.2316 55.2058C47.1691 55.3558 49.5816 66.7183 49.2691 69.1683C49.0125 70.7283 48.2427 72.158 47.0816 73.2308L47.1816 74.4808C47.1816 74.4808 50.1566 74.0558 50.7316 75.6183C51.3066 77.1808 49.2191 78.3808 47.7566 78.1183C46.2941 77.8558 46.0441 77.3933 46.0441 77.1808C46.0441 76.9683 45.8316 73.6433 45.8316 73.6433L44.5816 73.4308C44.5816 73.4308 45.1566 77.4433 44.5816 77.8058C44.0066 78.1683 41.5066 78.6433 40.7691 77.9183C40.5609 77.679 40.4174 77.3904 40.352 77.08C40.2866 76.7697 40.3015 76.4477 40.3954 76.1447C40.4893 75.8418 40.6591 75.5678 40.8885 75.3488C41.118 75.1298 41.3996 74.973 41.7066 74.8933C43.3316 74.5308 43.6441 74.7308 43.6441 74.7308V73.1683C42.8477 72.6353 42.2033 71.9047 41.7739 71.048C41.3444 70.1913 41.1447 69.2378 41.1941 68.2808C41.1941 64.7933 43.2816 54.2683 43.2816 54.2683C43.2816 54.2683 42.6566 53.5933 41.2941 55.2558C39.9292 57.3731 39.0105 59.7464 38.5941 62.2308C38.3816 63.7433 38.3316 64.2683 38.3316 64.2683C38.8723 64.5403 39.3195 64.9676 39.6157 65.4954C39.9119 66.0233 40.0437 66.6276 39.9941 67.2308C39.9387 67.688 39.7699 68.1241 39.5031 68.4995C39.2362 68.8748 38.8798 69.1775 38.4661 69.3799C38.0525 69.5824 37.5948 69.6783 37.1347 69.6588C36.6746 69.6393 36.2266 69.5051 35.8316 69.2683C34.2691 68.2808 34.4816 65.8808 35.1566 64.8933C35.6329 64.288 36.2897 63.8502 37.0316 63.6433C37.0316 63.6433 38.1691 57.2808 39.5316 55.4683C40.2625 54.3073 41.3634 53.4265 42.6566 52.9683C43.0191 52.8558 43.4316 52.7558 43.4316 52.7558V49.2183Z" fill="#1D1D1B"/>
<path d="M20.0432 14.1059C20.3429 13.9736 20.6691 13.9119 20.9964 13.9257C21.3237 13.9395 21.6435 14.0284 21.9311 14.1854C22.2186 14.3425 22.4662 14.5635 22.6547 14.8315C22.8432 15.0995 22.9676 15.4072 23.0182 15.7309C23.139 16.1755 23.1264 16.6458 22.982 17.0834C22.8376 17.5209 22.5678 17.9063 22.2061 18.1918C21.8444 18.4772 21.4068 18.65 20.9477 18.6886C20.4886 18.7273 20.0282 18.6302 19.6239 18.4093C19.2195 18.1885 18.889 17.8536 18.6735 17.4464C18.4579 17.0392 18.3668 16.5776 18.4115 16.119C18.4562 15.6605 18.6347 15.2251 18.9248 14.8672C19.2149 14.5093 19.6038 14.2445 20.0432 14.1059Z" fill="#C8DB89"/>
<path d="M68.9441 13.381C69.2421 13.2485 69.5666 13.1864 69.8924 13.1995C70.2183 13.2125 70.5368 13.3004 70.8232 13.4563C71.1096 13.6122 71.3563 13.832 71.5442 14.0985C71.7321 14.3651 71.8561 14.6713 71.9066 14.9935C72.0306 15.4383 72.0209 15.9098 71.8785 16.3491C71.7362 16.7884 71.4676 17.176 71.1062 17.4635C70.7449 17.751 70.3068 17.9257 69.8468 17.9658C69.3867 18.0058 68.9251 17.9095 68.5195 17.6887C68.1139 17.4679 67.7823 17.1326 67.5662 16.7245C67.3501 16.3164 67.259 15.8537 67.3043 15.3941C67.3496 14.9346 67.5293 14.4985 67.8209 14.1405C68.1126 13.7825 68.5032 13.5183 68.9441 13.381Z" fill="#C8DB89"/>
<path d="M25.4684 31.4058C25.7434 31.3183 25.6184 33.1808 25.8809 34.4808C26.1434 35.7808 26.3559 36.5558 26.0934 36.5558C25.8309 36.5558 23.9559 36.7683 23.5934 35.0558C23.3959 34.3232 23.4786 33.5433 23.8253 32.8683C24.172 32.1934 24.7578 31.672 25.4684 31.4058Z" fill="#C8DB89"/>
<path d="M62.8556 30.1559C63.1276 30.088 63.411 30.0798 63.6864 30.1321C63.9618 30.1843 64.2225 30.2957 64.4507 30.4585C64.6789 30.6213 64.869 30.8317 65.008 31.0751C65.1469 31.3185 65.2314 31.5892 65.2556 31.8684C65.6181 33.9059 62.4431 35.5184 62.2931 35.3059C62.1431 35.0934 62.7556 33.5309 62.8056 32.5434C62.7364 31.7481 62.7531 30.9477 62.8556 30.1559Z" fill="#C8DB89"/>
<path d="M24.4815 17.4434C24.7315 17.4434 29.6315 19.6309 29.419 20.0434C29.2065 20.4559 28.794 21.1434 28.644 21.0434C28.494 20.9434 24.169 18.9059 24.0565 18.6434C23.944 18.3809 24.4815 17.4434 24.4815 17.4434Z" fill="#FAB900"/>
<path d="M60.1934 21.406C60.4059 21.306 65.7184 17.081 66.0309 17.3935C66.3434 17.706 66.9059 18.181 66.6559 18.431C66.4059 18.681 61.0809 23.231 60.9184 22.9685C60.7559 22.706 60.1934 21.406 60.1934 21.406Z" fill="#FAB900"/>
<path d="M38.9434 16.1931C42.6934 14.8431 49.5684 15.3556 55.0309 19.0056C60.4934 22.6556 60.0309 33.3806 59.9309 34.5806C59.7805 35.4758 59.5202 36.3491 59.1559 37.1805C58.5633 36.1989 57.8812 35.2742 57.1184 34.4181C56.8559 34.4181 56.1809 34.8931 56.4434 35.1556C57.3447 36.2027 58.113 37.3573 58.7309 38.593C58.6309 38.9055 57.7434 40.3555 57.7434 40.3555C57.0614 39.1939 56.297 38.0827 55.4559 37.0305C55.2434 37.0305 54.5684 37.5431 54.6684 37.7055C55.5687 38.9314 56.3553 40.2368 57.0184 41.6055C56.8559 41.868 55.7684 42.968 55.6559 42.7555C55.1507 41.7476 54.5786 40.7746 53.9434 39.843C53.7809 39.843 53.2059 40.1055 53.3184 40.3555C53.4309 40.6055 55.2434 43.4305 55.0309 43.693C54.643 44.0422 54.2247 44.356 53.7809 44.6305C53.7809 44.6305 52.7434 42.1305 52.5309 42.1305C52.3184 42.1305 51.3809 42.6055 51.4934 42.7555C51.6059 42.9055 52.8434 44.9931 52.6309 45.2556C52.4101 45.4436 52.1665 45.6032 51.9059 45.7305L50.4684 43.9055L49.7309 44.368C49.7309 44.368 50.8809 46.1431 50.6684 46.1931L49.6309 46.5056C49.6309 46.5056 49.0059 45.1055 48.7934 45.043C48.5809 44.9805 47.7559 45.043 47.9184 45.2055C48.178 45.6935 48.4036 46.1989 48.5934 46.718C45.3812 47.3789 42.0681 47.3789 38.8559 46.718C36.2155 46.1414 33.8095 44.7842 31.9504 42.8225C30.0913 40.8609 28.8651 38.3856 28.4309 35.718C27.3987 30.8757 28.2194 25.8224 30.7309 21.5556C32.5434 18.5931 35.7809 17.3431 38.9434 16.1931Z" fill="#8EC480"/>
<path d="M33.4305 20.3056C33.7305 20.0931 34.218 20.5181 34.0555 20.7806C32.9656 21.7222 32.1567 22.9463 31.718 24.3181C31.093 26.5556 31.3555 27.0806 31.093 27.1306C30.8305 27.1806 30.1555 27.1306 30.1055 27.0306C30.2456 25.7922 30.5613 24.5801 31.043 23.4306C31.6112 22.2332 32.4246 21.1686 33.4305 20.3056Z" fill="#1D1D1B"/>
<path d="M43.5434 18.0684C44.8572 17.7782 46.2219 17.8117 47.5198 18.1661C48.8178 18.5205 50.0101 19.1852 50.9941 20.1028C51.9782 21.0204 52.7244 22.1634 53.1685 23.4335C53.6125 24.7036 53.7412 26.0626 53.5434 27.3934C52.6934 35.1559 41.5059 38.1684 37.7559 32.9684C34.0059 27.7684 34.5309 20.4184 43.5434 18.0684Z" fill="#1D1D1B"/>
<path d="M43.8063 20.2933C44.7867 20.0664 45.8077 20.0825 46.7805 20.3403C47.7532 20.5981 48.6482 21.0898 49.3876 21.7724C50.1269 22.4551 50.6882 23.3081 51.0226 24.2573C51.357 25.2064 51.4544 26.2229 51.3063 27.2183C50.6813 33.0308 42.3563 35.2308 39.5688 31.3683C36.7813 27.5058 37.1063 22.0308 43.8063 20.2933Z" fill="#E6E4DA"/>
<path d="M44.2058 23.5555C44.6868 23.4488 45.1865 23.4607 45.6619 23.5901C46.1373 23.7195 46.5741 23.9627 46.9345 24.2986C47.295 24.6344 47.5684 25.0529 47.731 25.518C47.8937 25.9831 47.9408 26.4807 47.8683 26.968C47.5558 29.8305 43.4558 30.918 42.0808 29.0055C40.7058 27.093 40.8933 24.418 44.2058 23.5555Z" fill="#1D1D1B"/>
<path d="M37.3426 38.2808C38.0539 39.3168 39.0226 40.1498 40.1536 40.6977C41.2845 41.2457 42.5387 41.4897 43.7926 41.4058C46.2485 41.3839 48.6004 40.4117 50.3551 38.6933C50.7801 38.6933 51.6051 39.8433 51.5051 40.3558C51.4051 40.8683 48.7426 43.7933 43.6426 43.4808C38.5426 43.1683 36.1426 39.8933 36.1426 39.6308C36.1426 39.3683 36.9176 38.2808 37.3426 38.2808Z" fill="#1D1D1B"/>
<path d="M45.1929 51.4058C45.4054 51.4058 47.6929 68.9058 47.1679 69.9433C46.6429 70.9808 43.9429 71.7183 43.4179 69.9433C42.8929 68.1683 44.6304 51.4058 45.1929 51.4058Z" fill="#8EC480"/>
<path d="M37.0318 65.3059C37.9068 65.1309 38.7443 66.0934 38.7443 67.0309C38.7117 67.2671 38.6259 67.4928 38.4933 67.691C38.3608 67.8892 38.185 68.0547 37.9791 68.1751C37.7733 68.2955 37.5429 68.3675 37.3051 68.3859C37.0674 68.4042 36.8286 68.3683 36.6068 68.2809C35.8318 67.8059 35.5193 65.6184 37.0318 65.3059Z" fill="#C8DB89"/>
<path d="M59.6314 52.6558C60.0786 52.6558 60.5103 52.82 60.8444 53.1173C61.1785 53.4145 61.3919 53.8241 61.4439 54.2683C61.4439 55.2058 59.5689 56.1433 58.9439 55.8308C58.3189 55.5183 58.0689 52.9683 59.6314 52.6558Z" fill="#C8DB89"/>
</svg>
