<svg width="150" height="53" viewBox="0 0 150 53" fill="none" xmlns="http://www.w3.org/2000/svg">
<mask id="path-1-inside-1_240_3416" fill="white">
<path d="M142 52.5C146.418 52.5 150.081 48.8786 149.138 44.5622C148.228 40.399 146.604 36.318 144.291 32.4091C140.522 26.0395 134.997 20.252 128.033 15.3769C121.069 10.5018 112.801 6.6347 103.701 3.99632C94.6018 1.35795 84.8491 -3.01364e-07 75 0C65.1509 3.01364e-07 55.3982 1.35795 46.2987 3.99633C37.1993 6.6347 28.9314 10.5018 21.967 15.3769C15.0026 20.252 9.47814 26.0395 5.70903 32.4091C3.39605 36.318 1.77191 40.399 0.86222 44.5622C-0.0809567 48.8786 3.58172 52.5 8 52.5L75 52.5H142Z"/>
</mask>
<path d="M142 52.5C146.418 52.5 150.081 48.8786 149.138 44.5622C148.228 40.399 146.604 36.318 144.291 32.4091C140.522 26.0395 134.997 20.252 128.033 15.3769C121.069 10.5018 112.801 6.6347 103.701 3.99632C94.6018 1.35795 84.8491 -3.01364e-07 75 0C65.1509 3.01364e-07 55.3982 1.35795 46.2987 3.99633C37.1993 6.6347 28.9314 10.5018 21.967 15.3769C15.0026 20.252 9.47814 26.0395 5.70903 32.4091C3.39605 36.318 1.77191 40.399 0.86222 44.5622C-0.0809567 48.8786 3.58172 52.5 8 52.5L75 52.5H142Z" fill="#C9E06A" stroke="#1D1D1B" stroke-width="6" mask="url(#path-1-inside-1_240_3416)"/>
</svg>
