<svg width="160" height="160" viewBox="0 0 160 160" fill="none" xmlns="http://www.w3.org/2000/svg">
<path d="M44.6507 72.5001C44.6507 71.9751 51.7257 50.4001 51.7257 50.4001C51.7257 50.4001 50.2257 38.1501 50.8257 37.9001C51.7254 37.747 52.6387 37.6884 53.5507 37.7251C53.5507 37.7251 52.7007 30.4501 53.5507 30.1001C55.1795 29.6554 56.8856 29.5701 58.5507 29.8501C58.5507 30.2751 58.3257 33.3001 58.5507 33.1001C58.7757 32.9001 66.5507 14.1001 72.7007 10.8001C78.8507 7.50013 86.7507 8.17513 90.0007 14.2501C93.2507 20.3251 98.4757 33.3751 98.4757 33.3751C98.4757 33.3751 98.4757 29.5251 98.8757 29.4001C99.2757 29.2751 104.826 29.5501 104.951 30.2751C105.076 31.0001 104.826 36.7251 104.826 36.7251C104.826 36.7251 109.026 37.5501 109.151 38.3751C109.276 39.2001 107.501 56.3501 107.501 56.3501C107.501 56.3501 113.101 66.6001 113.401 69.6251C113.701 72.6501 107.901 90.0001 105.451 98.7251C103.001 107.45 99.7507 117.325 99.7507 117.325L106.051 115.175C106.497 112.603 107.226 110.087 108.226 107.675C110.382 105.92 112.412 104.016 114.301 101.975C117.751 98.5501 118.026 97.1751 118.026 97.1751C118.026 97.1751 116.326 78.3751 117.051 77.8251C117.978 77.3839 118.977 77.113 120.001 77.0251C120.001 77.0251 119.351 72.6751 120.001 72.2501C122.506 71.984 125.038 72.119 127.501 72.6501C127.501 72.9751 128.426 68.9751 129.476 68.8501C130.526 68.7251 135.001 70.0001 138.426 79.0001C141.851 88.0001 142.151 110 138.226 121.1C134.301 132.2 128.926 138.35 119.626 140.825C110.326 143.3 104.251 142.725 102.676 142.25C101.101 141.775 99.6257 141.3 99.7007 140.15C99.7757 139 100.201 135.975 100.201 135.975H93.2257C92.6731 137.976 91.928 139.918 91.0007 141.775C89.8408 142.063 88.6424 142.164 87.4507 142.075C87.4371 144.89 87.1355 147.696 86.5507 150.45C85.9507 150.875 71.6757 151.6 71.1507 150.8C70.4033 147.688 69.8522 144.532 69.5007 141.35C69.5007 141.35 65.6507 141.575 65.4257 141.05C65.2007 140.525 62.9257 133.825 62.9257 133.825L55.4257 133.425C56.1063 135.868 56.4594 138.39 56.4757 140.925C56.0007 142.075 44.1507 143.15 35.0757 139.25C26.0007 135.35 20.6507 131.125 19.3257 114.25C18.0007 97.3751 18.9007 78.3001 20.6507 70.8501C22.4007 63.4001 24.3757 62.7251 25.5257 62.9001C25.9971 62.9648 26.4364 63.1757 26.7817 63.503C27.127 63.8304 27.361 64.2578 27.4507 64.7251C27.4507 65.4501 27.7507 67.4251 27.7507 67.4251C27.7507 67.4251 33.8757 66.6001 34.0007 67.6501C34.0414 69.0775 33.9829 70.5059 33.8257 71.9251C33.8257 71.9251 38.0757 71.4751 38.2507 73.4751C38.4257 75.4751 38.4257 97.7501 38.4257 97.7501C40.5311 100.186 42.867 102.413 45.4007 104.4C47.3007 105.4 47.0757 104.675 47.3007 105.4C47.5257 106.125 49.8007 116.575 50.4507 116.975C53.2952 117.52 56.1656 117.921 59.0507 118.175C59.0507 118.175 46.5007 85.4501 44.6507 72.5001Z" fill="#2C2C2C"/>
<path d="M79.9999 12.3499C85.8249 12.3499 88.525 18.7749 92.5 27.9249C96.475 37.0749 108.85 69.8499 108.925 72.6749C109 75.4999 88.925 137.675 88.325 137.675C87.725 137.675 87.1 137.825 87.075 137.3C87.05 136.775 93.6499 105.85 93.4749 103.35C93.2999 100.85 83.8749 69.7499 82.6749 68.3249C81.4749 66.8999 74.6 66.7999 73.6 67.7749C72.6 68.7499 66.4999 106.225 66.7499 107.775C66.9999 109.325 73.9249 136.125 73.0999 136.35C72.1869 136.745 71.1745 136.85 70.1999 136.65C69.3499 136.25 50.9749 78.0249 50.4249 73.4499C49.8749 68.8749 57.4249 46.2499 61.9249 36.3249C66.4249 26.3999 72.0749 12.2749 79.9999 12.3499Z" fill="#E6E4DA"/>
<path d="M68.9997 32.25C69.7747 31.075 74.5497 29.175 80.3747 29.225C84.0041 29.0987 87.5993 29.9629 90.7747 31.725C90.9997 32.125 97.8247 51.525 96.8997 51.975C95.9747 52.425 87.5247 49.025 78.5747 49.6C69.6247 50.175 62.6247 52.35 62.0747 51.95C61.5247 51.55 67.4997 34.6 68.9997 32.25Z" fill="#2C2C2C"/>
<path d="M80.2501 31.6248C83.3583 31.5537 86.4324 32.2857 89.1751 33.7498C89.8251 34.5748 94.1751 48.0998 93.3501 48.2248C88.2542 46.725 82.9616 46.0002 77.6501 46.0748C69.6501 46.6248 65.6501 49.2498 65.6251 48.5748C65.6001 47.8998 70.2001 33.5748 71.0251 33.2248C73.9687 32.1034 77.1008 31.5601 80.2501 31.6248Z" fill="#CBE7F5"/>
<path d="M71.5 25.0002C71.7 24.3752 75.325 16.7502 76.275 16.6252C77.225 16.5002 78.225 15.8252 77.625 16.9002C77.025 17.9752 74.1 24.6002 73.5 25.0002C72.9 25.4002 71.5 25.0002 71.5 25.0002Z" fill="#2C2C2C"/>
<path d="M59.226 57.0249C59.226 57.0249 61.601 57.0249 61.526 57.4999C61.451 57.9749 57.501 68.9749 56.976 69.4999C56.451 70.0249 55.426 70.1749 55.101 69.7749C54.776 69.3749 59.226 57.0249 59.226 57.0249Z" fill="#2C2C2C"/>
<path d="M56.1758 77.4999C56.1758 76.7499 57.8258 76.9249 58.2508 77.6499C58.6758 78.3749 61.2758 88.1749 60.7508 88.3999C60.2258 88.6249 59.3258 89.4999 58.9758 88.3999C58.6258 87.2999 56.1758 78.0749 56.1758 77.4999Z" fill="#2C2C2C"/>
<path d="M77.2499 71.7249C77.5999 71.2999 79.5499 71.7249 79.7499 72.0749C79.9499 72.4249 85.6249 91.3749 85.1999 91.3999C84.7749 91.4249 81.6999 89.0998 81.6999 89.3998C81.6999 89.6998 81.0499 91.5248 81.4749 91.8998C81.8999 92.2748 85.9249 94.8749 86.2749 95.9249C86.6249 96.9749 88.2499 102.525 88.2499 102.525C86.5521 100.724 84.722 99.0527 82.7749 97.5248C82.4749 97.7498 81.8749 98.5998 82.2999 98.9998C82.7249 99.3998 87.8749 104.15 87.5999 105.1C87.4308 105.613 87.3053 106.14 87.2249 106.675C85.4437 105.305 83.5635 104.068 81.5999 102.975C81.2749 103.2 80.6749 104.15 81.2249 104.675C81.7749 105.2 86.7499 108.45 86.7749 109.075C86.7999 109.7 86.2499 112.65 86.2499 112.65C84.797 112.014 83.2799 111.536 81.7249 111.225C81.7249 111.525 80.9749 113.725 81.5999 114.125C82.2249 114.525 85.4249 116.225 85.4249 116.225C85.4249 116.225 82.0749 137.05 81.4499 137.175C80.8249 137.3 78.0249 137.7 77.6999 137.175C77.3749 136.65 70.9999 108.075 71.0749 107.175C71.1499 106.275 76.6499 72.4999 77.2499 71.7249Z" fill="#E7413E"/>
<path d="M98.2004 64.4248C100.41 65.7718 102.392 67.4592 104.075 69.4248C103.95 69.9307 103.711 70.4012 103.375 70.7998C103.375 70.7998 97.0004 66.3998 96.8754 65.9748C96.7504 65.5498 98.1004 64.8498 98.2004 64.4248Z" fill="#2C2C2C"/>
<path d="M93.9751 69.4498C93.9751 68.7498 102.825 76.7998 102.85 77.2248C102.875 77.6498 102.85 78.6748 102.375 78.4748C98.9203 76.307 95.6206 73.9012 92.5001 71.2748C92.3251 70.5498 93.8751 69.9998 93.9751 69.4498Z" fill="#2C2C2C"/>
<path d="M92.0487 74.7246C95.6535 77.3054 98.9575 80.2824 101.899 83.5996C102.024 84.3246 102.024 84.3246 101.599 84.5496C97.8219 82.2367 94.3455 79.4657 91.2487 76.2996C91.1237 75.3746 91.7487 75.1496 92.0487 74.7246Z" fill="#2C2C2C"/>
<path d="M92.1246 81.5996C95.2476 83.8839 98.1517 86.4533 100.8 89.2746C100.8 89.6746 101.05 90.1996 100.625 90.3246C97.2587 88.1449 94.0508 85.7306 91.0246 83.0996C90.9246 82.6746 91.9246 81.5996 92.1246 81.5996Z" fill="#2C2C2C"/>
<path d="M92.8746 88.7749C95.0788 90.387 97.1827 92.1319 99.1746 93.9999C99.1746 94.3249 99.1746 95.7749 98.7996 95.6749C96.3619 94.0812 94.0772 92.2651 91.9746 90.2499C91.9746 89.8499 92.8746 88.7749 92.8746 88.7749Z" fill="#2C2C2C"/>
<path d="M120.25 80.6749C120.7 80.4249 125.025 79.9999 124.925 80.4249C123.629 84.7271 122.084 88.9508 120.3 93.0749C120.022 88.9468 120.005 84.8051 120.25 80.6749Z" fill="#F2910D"/>
<path d="M122.7 75.9002C122.7 75.9002 121.85 75.0002 122.875 74.7502C124.022 74.6314 125.178 74.6314 126.325 74.7502C126.325 74.7502 126.325 76.4252 125.85 76.5502C124.78 76.4448 123.724 76.2269 122.7 75.9002Z" fill="#F2910D"/>
<path d="M112.5 110.275C117.552 105.146 121.868 99.3405 125.325 93.0252C129.95 83.6252 131.325 77.4252 131.85 77.3002C132.375 77.1752 135.15 83.4502 135.3 92.1002C135.45 100.75 135.9 112.3 133.525 119.775C131.858 124.523 128.959 128.742 125.125 132C125.125 132 118.55 120.95 117.925 120.975C117.3 121 116.05 121.225 116.375 121.85C116.7 122.475 123.5 133.3 123.075 133.725C122.094 134.248 121.064 134.675 120 135C120 135 115 125.35 114.4 125.375C113.8 125.4 112.225 125.95 112.45 126.275C112.675 126.6 118 135.25 117.5 135.675C117.075 135.967 116.586 136.156 116.075 136.225L111.6 129.7C111.6 129.7 109.95 130.275 110.275 130.775C110.6 131.275 114.1 136.4 113.375 136.725C112.65 137.05 105.875 138.1 105.875 137.375C105.875 136.65 112.5 110.7 112.5 110.275Z" fill="#A42116"/>
<path d="M121.101 116.9C123.637 119.717 125.858 122.802 127.726 126.1C127.726 126.525 126.526 127.475 126.101 127.3C123.835 124.379 121.724 121.341 119.776 118.2C119.551 117.5 121.001 117.225 121.101 116.9Z" fill="#2C2C2C"/>
<path d="M123.699 113.4C123.699 112.875 124.824 112.325 125.349 112.4C127.492 114.793 129.385 117.398 130.999 120.175C130.999 120.675 131.349 121.825 130.399 121.425C127.916 118.969 125.673 116.282 123.699 113.4Z" fill="#2C2C2C"/>
<path d="M126.801 109.025C126.801 109.025 127.801 107.225 128.126 107.525C128.451 107.825 133.276 112.8 133.126 113.525C132.976 114.25 133.126 115.3 132.551 115.125C131.976 114.95 127.126 109.325 126.801 109.025Z" fill="#2C2C2C"/>
<path d="M129.551 103.225C129.551 102.9 129.701 101.35 130.326 101.325C130.951 101.3 133.426 103.825 133.651 104.45C133.876 105.075 133.826 106.625 133.526 106.55C133.226 106.475 129.551 103.225 129.551 103.225Z" fill="#2C2C2C"/>
<path d="M72.4992 142C76.4505 141.711 80.4142 141.628 84.3742 141.75C84.3742 142.175 84.3742 148.325 83.5242 148.55C80.2036 148.917 76.8567 148.983 73.5242 148.75C73.3492 148.325 71.9242 142.025 72.4992 142Z" fill="#F2910D"/>
<path d="M28.825 69.3C29.2 68.9 31.75 69 31.85 69.3C31.95 69.6 32.25 72.1 31.85 72.325C31.45 72.55 28.525 72.95 28.5 72.525C28.5441 71.4445 28.6527 70.3675 28.825 69.3Z" fill="#F2910D"/>
<path d="M28.6992 75.2248C28.6992 74.4998 34.6242 75.0498 34.6492 75.4748C34.6742 75.8998 35.7492 91.8998 35.2242 91.5998C32.1216 86.5584 29.9141 81.0184 28.6992 75.2248Z" fill="#F2910D"/>
<path d="M24.649 79.6249C24.649 78.6499 26.824 93.3249 32.624 99.2999C35.7727 102.644 39.325 105.583 43.199 108.05C43.199 108.05 49.649 128.4 49.224 128.05C48.799 127.7 44.774 122.025 44.224 121.925C43.674 121.825 42.799 122.9 42.899 123.225C42.999 123.55 49.724 131.875 50.049 132.6C50.374 133.325 51.074 135.475 50.774 135.7C50.474 135.925 49.749 136.15 49.524 135.7C46.7447 131.736 43.7047 127.961 40.424 124.4C39.599 124.2 38.974 124.4 38.774 124.85C38.574 125.3 47.449 136.075 46.824 136.075C45.7771 136.17 44.7216 136.094 43.699 135.85C43.274 135.55 37.274 127.075 36.874 126.9C36.474 126.725 34.799 127.775 35.124 128.3C35.449 128.825 41.399 135.5 40.774 135.525C37.6835 135.211 34.7323 134.079 32.2236 132.247C29.7148 130.415 27.739 127.948 26.499 125.1C22.499 115.75 24.249 83.8999 24.649 79.6249Z" fill="#A42116"/>
</svg>
